<svg width="253" height="97" viewBox="0 0 253 97" fill="none" xmlns="http://www.w3.org/2000/svg">
<g clip-path="url(#clip0)">
<path d="M16.5717 75.9181L239.056 75.9181L239.056 43.5074L16.5717 43.5074L16.5717 75.9181Z" fill="#335437"/>
<g opacity="0.5">
<g opacity="0.5">
<path opacity="0.5" d="M16.5717 75.9181L239.056 75.9181L239.056 43.5074L16.5717 43.5074L16.5717 75.9181Z" fill="black"/>
</g>
</g>
<path d="M230.561 77.1362C231.356 65.398 222.417 55.2424 210.594 54.4529C198.772 53.6635 188.544 62.5392 187.749 74.2774C186.954 86.0156 195.893 96.1712 207.715 96.9607C219.537 97.7501 229.766 88.8744 230.561 77.1362Z" fill="#263238"/>
<path d="M230.61 75.3413C230.61 75.3568 230.61 75.38 230.61 75.3955C230.781 87.1608 221.316 96.8298 209.466 97C197.617 97.1702 187.878 87.7719 187.707 76.0065C187.707 75.9911 187.707 75.9679 187.707 75.9524L230.61 75.3413Z" fill="#263238"/>
<path d="M224.221 75.4882C224.338 83.7495 217.693 90.541 209.38 90.657C201.06 90.7731 194.22 84.1749 194.103 75.9214C193.986 67.6601 200.631 60.8686 208.944 60.7526C217.264 60.6288 224.097 67.227 224.221 75.4882Z" fill="#FAFAFA"/>
<path d="M208.944 60.7449C217.265 60.6289 224.105 67.2271 224.222 75.4806L194.103 75.9137C193.978 67.6602 200.624 60.8687 208.944 60.7449Z" fill="#E0E0E0"/>
<path d="M218.332 75.5733C218.402 80.6012 214.359 84.7396 209.287 84.8169C204.223 84.8866 200.055 80.872 199.977 75.8363C199.907 70.8084 203.95 66.67 209.022 66.5927C214.094 66.5231 218.262 70.5377 218.332 75.5733Z" fill="#263238"/>
<path d="M66.5271 76.9322C67.212 65.1869 58.1776 55.1142 46.3483 54.4342C34.519 53.7542 24.3742 62.7243 23.6893 74.4695C23.0044 86.2148 32.0388 96.2875 43.8681 96.9675C55.6974 97.6475 65.8422 88.6774 66.5271 76.9322Z" fill="#263238"/>
<path d="M66.5552 75.3412C66.5552 75.3567 66.5552 75.3799 66.5552 75.3953C66.7266 87.1606 57.261 96.8297 45.4115 96.9999C33.5619 97.1701 23.8237 87.7717 23.6523 76.0064C23.6523 75.9909 23.6523 75.9677 23.6523 75.9523L66.5552 75.3412Z" fill="#263238"/>
<path d="M60.1669 75.4882C60.2838 83.7495 53.6384 90.541 45.3258 90.657C37.0054 90.7731 30.1653 84.1749 30.0484 75.9214C29.9315 67.6601 36.5769 60.8686 44.8895 60.7526C53.2099 60.6288 60.05 67.227 60.1669 75.4882Z" fill="#FAFAFA"/>
<path d="M44.8895 60.7448C53.2099 60.6288 60.05 67.2269 60.1669 75.4804L30.0484 75.9136C29.9315 67.6601 36.5769 60.8686 44.8895 60.7448Z" fill="#E0E0E0"/>
<path d="M54.285 75.5733C54.3551 80.6012 50.3117 84.7396 45.2401 84.8169C40.1762 84.8866 36.0082 80.872 35.9303 75.8363C35.8602 70.8084 39.9035 66.67 44.9752 66.5927C50.0391 66.5231 54.207 70.5377 54.285 75.5733Z" fill="#263238"/>
<path d="M181.039 25.2695C181.039 25.2695 212.63 27.5823 224.339 30.1891C232.589 32.0301 248.505 35.2016 248.311 45.1413L247.048 52.2655C247.048 52.2655 252.954 54.9419 252.954 61.7721C252.954 68.6024 254.395 79.1996 240.621 79.6251C238.354 79.6947 234.038 79.6251 234.038 79.6251C234.038 79.6251 236.687 50.4941 209.724 49.6355C182.301 48.7692 184.124 79.3543 184.124 79.3543H69.664C69.664 79.3543 74.3618 49.5504 44.8432 49.5118C15.3246 49.4731 19.8119 79.5477 19.8119 79.5477C19.8119 79.5477 8.94404 80.4837 3.89573 71.418C-1.16038 62.3523 0.156235 55.9011 0.156235 55.9011L0.319837 50.177C0.374372 48.2277 1.94807 46.6575 3.91131 46.5801C3.91131 46.5801 1.94028 32.1539 4.96304 29.6631C7.9858 27.1724 24.5798 12.1041 24.5798 12.1041L23.7929 11.609C22.4685 10.7814 22.7023 8.80115 24.1747 8.29836C30.4773 6.14796 42.9267 1.89358 45.8559 0.872526C46.3 0.717821 46.7519 0.624998 47.2193 0.586322C48.9644 0.454823 53.9114 0.145413 62.9953 0.0448544C74.058 -0.0711743 117.989 0.0448544 117.989 0.0448544C117.989 0.0448544 133.103 1.28249 141.532 4.95674C150.383 8.8321 181.039 25.2695 181.039 25.2695Z" fill="#486D4D"/>
<g opacity="0.4">
<g opacity="0.4">
<g opacity="0.4">
<path opacity="0.4" d="M244.945 60.9847C246.09 60.7526 247.851 60.7294 248.723 61.503C249.37 62.0754 249.541 63.0036 249.642 63.8545C249.775 65.0302 249.845 66.2369 249.564 67.3818C249.284 68.5343 248.606 69.6327 247.562 70.1974C246.518 70.7621 245.077 70.6692 244.259 69.8029C243.511 69.0139 243.425 67.8304 243.449 66.7475C243.48 65.2081 243.355 63.9086 243.636 62.4002C243.69 62.114 243.846 61.7505 244.033 61.5262C244.329 61.1626 244.563 61.0079 244.945 60.9847Z" fill="black"/>
</g>
</g>
</g>
<path d="M247.048 52.267C243.69 52.2747 240.442 52.0813 237.092 51.8648C236.733 51.8416 236.336 51.8029 236.071 51.5553C235.752 51.2614 235.728 50.7741 235.72 50.3409C235.705 48.5541 235.791 46.5274 237.154 45.3671C237.988 44.6555 239.133 44.4389 240.223 44.3306C242.919 44.0754 245.739 44.2842 248.302 45.1351L247.048 52.267Z" fill="#FAFAFA"/>
<path d="M177.416 78.4431C177.416 78.4431 177.431 78.3503 177.439 78.1569C177.455 77.9635 177.47 77.685 177.493 77.3215C177.532 76.5789 177.595 75.496 177.673 74.1114C177.751 72.719 177.844 71.0095 178.047 69.037C178.257 67.0645 178.561 64.8213 179.231 62.4157C179.901 60.0177 180.937 57.4574 182.464 54.9511C183.999 52.4604 186.009 49.9696 188.704 48.0436C194.119 44.2224 201.426 42.0642 209.077 41.9714C216.743 41.8786 224.027 44.2842 229.301 48.2911C231.965 50.2558 234.17 52.5455 235.869 54.9434C237.582 57.3336 238.829 59.7857 239.709 62.1217C240.597 64.4578 241.065 66.6778 241.33 68.6425C241.618 70.6073 241.571 72.3245 241.525 73.7169C241.415 75.1092 241.291 76.1844 241.135 76.9038C241.073 77.2596 241.018 77.5381 240.987 77.7237C240.956 77.9094 240.94 78.0022 240.94 78.0022C240.94 78.0022 240.964 77.9094 241.003 77.7237C241.042 77.5303 241.096 77.2596 241.174 76.9038C241.345 76.1844 241.486 75.1092 241.61 73.7169C241.673 72.3245 241.727 70.5996 241.447 68.6271C241.19 66.6546 240.73 64.4191 239.85 62.0753C238.969 59.7315 237.723 57.2562 236.009 54.8506C234.31 52.4372 232.09 50.1243 229.418 48.1441C224.113 44.0986 216.782 41.6775 209.077 41.7703C201.387 41.8631 194.049 44.0367 188.595 47.8966C185.876 49.8459 183.858 52.3598 182.316 54.8738C180.789 57.4032 179.761 59.9791 179.091 62.3925C178.428 64.8136 178.132 67.0645 177.938 69.0448C177.743 71.025 177.665 72.7345 177.603 74.1268C177.54 75.5192 177.493 76.6021 177.462 77.3447C177.447 77.7082 177.439 77.9867 177.431 78.1801C177.408 78.3425 177.416 78.4431 177.416 78.4431Z" fill="white"/>
<path d="M176.2 78.9381C176.2 78.9381 176.208 78.8608 176.216 78.6983C176.224 78.5359 176.231 78.3038 176.239 77.9944C176.263 77.3679 176.286 76.4474 176.325 75.2407C176.395 72.8273 176.496 69.2923 176.621 64.7981C176.746 60.3039 176.894 54.8428 177.065 48.5927C177.104 47.0302 177.151 45.4135 177.197 43.7582C177.252 42.9305 177.166 42.0797 177.088 41.2288C177.026 40.8033 176.964 40.3779 176.901 39.9447C176.816 39.5193 176.722 39.0938 176.636 38.6607C176.231 36.9512 175.639 35.234 174.852 33.5631C174.058 31.8923 173.115 30.2447 171.915 28.7209L171.908 28.7131L171.892 28.7054C165.769 24.8765 159.115 20.7149 152.073 16.3058C150.312 15.2074 148.528 14.0858 146.721 12.9565C144.944 11.7652 143.036 10.7442 141.057 9.81594C139.078 8.89545 137.021 8.08325 134.902 7.37934C133.85 7.01578 132.768 6.71411 131.692 6.39696C130.602 6.12623 129.511 5.81682 128.405 5.5925C124.136 4.6488 119.843 4.18468 115.628 3.9913C111.413 3.79792 107.284 3.80565 103.265 4.02998L103.148 4.03771L103.171 4.15374C105.072 12.5774 106.856 20.5293 108.5 27.8081V27.8236L108.508 27.8391C109.505 29.4712 110.299 31.1884 110.899 32.9211C111.468 34.6538 111.834 36.4407 111.71 38.1811C111.577 39.9293 111.523 41.6387 111.484 43.3018C111.452 44.9649 111.421 46.5738 111.39 48.1364C111.297 54.3864 111.273 59.8398 111.258 64.334C111.25 68.8204 111.25 72.3554 111.25 74.7688C111.258 75.9678 111.258 76.896 111.258 77.5226C111.258 77.832 111.265 78.064 111.265 78.2265C111.265 78.3812 111.273 78.4663 111.273 78.4663C111.273 78.4663 111.281 78.3889 111.281 78.2265C111.281 78.064 111.289 77.832 111.289 77.5226C111.297 76.896 111.297 75.9755 111.304 74.7688C111.32 72.3554 111.336 68.8281 111.367 64.334C111.398 59.8398 111.437 54.3864 111.546 48.1441C111.577 46.5816 111.616 44.9726 111.647 43.3096C111.694 41.6465 111.748 39.9447 111.889 38.2043C112.021 36.4329 111.655 34.6306 111.078 32.8824C110.479 31.1343 109.684 29.4093 108.679 27.7617L108.695 27.7927C107.059 20.5061 105.274 12.562 103.389 4.13053L103.296 4.2543C107.3 4.02998 111.437 4.02224 115.636 4.21562C119.843 4.409 124.12 4.87312 128.374 5.81682C129.48 6.03341 130.563 6.34282 131.653 6.61355C132.729 6.93069 133.804 7.23237 134.855 7.59593C136.959 8.29983 139.016 9.1043 140.987 10.0248C142.958 10.9453 144.866 11.9586 146.627 13.1498C148.434 14.2792 150.219 15.3931 151.979 16.4915C159.03 20.8928 165.691 25.0544 171.814 28.8756L171.791 28.8601C172.975 30.3608 173.918 32.0084 174.712 33.6637C175.499 35.3268 176.091 37.0285 176.496 38.7303C177.4 42.1415 176.94 45.5064 176.933 48.6237C176.777 54.8738 176.644 60.3348 176.527 64.829C176.418 69.3232 176.333 72.8582 176.278 75.2716C176.255 76.4706 176.231 77.3988 176.216 78.0254C176.208 78.3348 176.208 78.5668 176.208 78.7293C176.192 78.853 176.2 78.9381 176.2 78.9381Z" fill="#263238"/>
<path d="M103.397 4.69527C103.397 4.69527 103.335 4.68754 103.21 4.6798C103.078 4.67207 102.898 4.67207 102.657 4.66433C102.166 4.64886 101.449 4.63339 100.53 4.61019C98.668 4.57151 95.9803 4.51736 92.6381 4.45548C85.9304 4.33945 76.5817 4.18475 66.0176 4.00684H65.9709L65.9397 4.04551C64.7477 5.49974 63.4857 7.02358 62.208 8.57837C58.4296 13.1808 54.8303 17.559 51.5582 21.5426C51.1531 22.0377 50.748 22.5328 50.3507 23.0201C49.9534 23.5151 49.6184 24.0489 49.3535 24.6058C48.8315 25.7197 48.5589 26.9186 48.5589 28.0712C48.5433 29.2315 48.7926 30.3376 49.2055 31.3277C49.6262 32.3024 50.0313 33.2383 50.4208 34.1356C51.9711 37.7016 53.2254 40.5868 54.098 42.5902C54.5343 43.5804 54.877 44.3539 55.1108 44.8876C55.2276 45.1429 55.3133 45.344 55.3756 45.4832C55.438 45.6147 55.4769 45.6843 55.4769 45.6843C55.4769 45.6843 55.4535 45.6147 55.399 45.4755C55.3367 45.3363 55.2588 45.1351 55.1497 44.8721C54.9238 44.3384 54.5966 43.5572 54.1759 42.5593C53.3189 40.5481 52.0802 37.6552 50.5533 34.0815C49.8599 32.2792 48.6523 30.384 48.7302 28.0789C48.738 26.9496 49.0029 25.7816 49.5171 24.6909C49.782 24.1494 50.1092 23.6312 50.4987 23.1438C50.896 22.6565 51.3011 22.1692 51.714 21.6741C54.9939 17.6905 58.5932 13.3123 62.3794 8.7176C63.6571 7.16282 64.9113 5.63897 66.1033 4.18475L66.0254 4.22342C76.5895 4.37813 85.9382 4.50963 92.6459 4.60245C95.9881 4.64113 98.6836 4.67207 100.546 4.69527C101.465 4.70301 102.182 4.71074 102.672 4.71074C102.906 4.71074 103.093 4.71074 103.226 4.71074C103.335 4.69527 103.397 4.69527 103.397 4.69527Z" fill="#263238"/>
<path d="M116.836 39.8365C116.836 39.8288 116.727 39.8288 116.516 39.7901C116.314 39.7514 116.002 39.6741 115.675 39.4575C115.348 39.2409 114.997 38.8774 114.818 38.3514C114.724 38.0884 114.693 37.7944 114.709 37.4773C114.717 37.1679 114.795 36.8352 114.958 36.5336C115.278 35.9225 115.979 35.4197 116.805 35.4197C117.654 35.4197 118.557 35.4274 119.508 35.4274C121.417 35.4274 123.505 35.4352 125.701 35.4352C126.223 35.4352 126.738 35.6363 127.112 35.9844C127.486 36.3247 127.727 36.7966 127.782 37.2839C127.828 37.7867 127.766 38.274 127.524 38.6917C127.291 39.1094 126.917 39.4188 126.496 39.5967C126.075 39.7824 125.616 39.7592 125.164 39.7592C124.712 39.7592 124.276 39.7592 123.847 39.7669C122.998 39.7746 122.211 39.7746 121.495 39.7824C120.069 39.7978 118.908 39.8056 118.082 39.8133C117.693 39.8211 117.389 39.8288 117.155 39.8365C116.945 39.8288 116.836 39.8365 116.836 39.8365C116.836 39.8443 116.945 39.852 117.163 39.8597C117.397 39.8675 117.701 39.8675 118.09 39.8829C118.916 39.8907 120.077 39.8984 121.502 39.9139C122.227 39.9139 123.014 39.9216 123.855 39.9293C124.276 39.9293 124.72 39.9293 125.172 39.9371C125.398 39.9371 125.624 39.9448 125.865 39.9293C126.107 39.9139 126.348 39.8597 126.582 39.7669C127.041 39.5735 127.454 39.2332 127.711 38.7845C127.976 38.3359 128.054 37.7789 128 37.2607C127.945 36.727 127.68 36.201 127.267 35.8297C126.854 35.4506 126.294 35.2263 125.717 35.2263C123.52 35.2263 121.424 35.2341 119.524 35.2341C118.573 35.2418 117.669 35.2418 116.82 35.2418C115.924 35.2495 115.176 35.8065 114.849 36.464C114.678 36.7966 114.6 37.1447 114.6 37.4773C114.592 37.8022 114.631 38.1193 114.732 38.39C114.927 38.947 115.309 39.3183 115.659 39.5271C116.01 39.7437 116.329 39.8133 116.54 39.8365C116.719 39.8597 116.836 39.8365 116.836 39.8365Z" fill="#263238"/>
<path d="M57.5103 39.8365C57.5103 39.8288 57.4012 39.8288 57.1909 39.7901C56.9883 39.7514 56.6767 39.6741 56.3495 39.4575C56.0223 39.2409 55.6717 38.8774 55.4925 38.3514C55.3991 38.0884 55.3679 37.7944 55.3835 37.4773C55.3913 37.1679 55.4692 36.8352 55.6328 36.5336C55.9522 35.9225 56.6533 35.4197 57.4791 35.4197C58.3283 35.4197 59.232 35.4274 60.1825 35.4274C62.0912 35.4274 64.1791 35.4352 66.376 35.4352C66.898 35.4352 67.4122 35.6363 67.7861 35.9844C68.1601 36.3247 68.4016 36.7966 68.4561 37.2839C68.5029 37.7867 68.4405 38.274 68.199 38.6917C67.9653 39.1094 67.5914 39.4188 67.1707 39.5967C66.75 39.7824 66.2903 39.7592 65.8385 39.7592C65.3866 39.7592 64.9503 39.7592 64.5219 39.7669C63.6727 39.7746 62.8858 39.7746 62.1691 39.7824C60.7434 39.7978 59.5826 39.8056 58.7568 39.8133C58.3673 39.8211 58.0634 39.8288 57.8297 39.8365C57.6272 39.8288 57.5103 39.8365 57.5103 39.8365C57.5103 39.8443 57.6194 39.852 57.8375 39.8597C58.0712 39.8675 58.3751 39.8675 58.7646 39.8829C59.5904 39.8907 60.7512 39.8984 62.1769 39.9139C62.9014 39.9139 63.6883 39.9216 64.5296 39.9293C64.9503 39.9293 65.3944 39.9293 65.8463 39.9371C66.0722 39.9371 66.2981 39.9448 66.5396 39.9293C66.7811 39.9139 67.0226 39.8597 67.2564 39.7669C67.716 39.5735 68.1289 39.2332 68.386 38.7845C68.6509 38.3359 68.7288 37.7789 68.6742 37.2607C68.6197 36.727 68.3548 36.201 67.9419 35.8297C67.529 35.4506 66.9681 35.2263 66.3916 35.2263C64.1947 35.2263 62.099 35.2341 60.1981 35.2341C59.2476 35.2418 58.3439 35.2418 57.4947 35.2418C56.5988 35.2495 55.8509 35.8065 55.5237 36.464C55.3523 36.7966 55.2744 37.1447 55.2744 37.4773C55.2666 37.8022 55.3056 38.1193 55.4068 38.39C55.6016 38.947 55.9833 39.3183 56.3339 39.5271C56.6845 39.7437 57.0039 39.8133 57.2143 39.8365C57.4012 39.8597 57.5103 39.8365 57.5103 39.8365Z" fill="#263238"/>
<path d="M5.49241 30.2294H17.3653C18.9935 30.2294 20.4815 31.1267 21.245 32.5577C21.8683 33.7334 21.915 35.118 21.3775 36.3325L16.7187 46.8292L4.8302 46.7132C4.8302 46.7132 2.30605 33.4086 5.49241 30.2294Z" fill="#FAFAFA"/>
<path d="M170.342 28.7441L109.092 27.6225L69.2352 26.8954L56.0924 19.3613C55.0251 18.7502 54.7446 17.3501 55.4848 16.3832L63.6649 5.70856C64.5219 4.59468 65.8463 3.93718 67.2486 3.92945L111.834 3.56589C111.834 3.56589 128.623 2.59899 141.851 9.94747C155.773 17.6905 170.342 28.7441 170.342 28.7441Z" fill="#263238"/>
<path d="M142.272 4.66431C142.272 4.66431 139.203 6.05665 141.197 7.3407C143.191 8.63249 174.221 28.0557 174.221 28.0557L181.358 24.8533C168.729 17.8606 155.968 11.0768 142.272 4.66431Z" fill="#455A64"/>
<path d="M173.232 28.5431C173.232 28.5431 173.294 28.5663 173.427 28.5895C173.559 28.6204 173.754 28.6591 173.988 28.7133C174.494 28.8138 175.226 28.9685 176.161 29.1619C178.054 29.5332 180.797 30.0592 184.201 30.6393C191.002 31.7996 200.452 33.1533 210.946 34.0583C213.572 34.2826 216.135 34.4683 218.612 34.6307C221.09 34.7932 223.481 34.9401 225.748 35.149C230.29 35.5435 234.357 36.201 237.66 37.1756C240.971 38.1193 243.503 39.3338 245.17 40.2852C246.027 40.7338 246.635 41.167 247.064 41.43C247.274 41.5615 247.438 41.6621 247.554 41.7394C247.663 41.809 247.726 41.84 247.726 41.84C247.726 41.84 247.671 41.8013 247.57 41.7239C247.453 41.6466 247.297 41.5383 247.095 41.3991C246.666 41.1206 246.066 40.672 245.217 40.2156C243.558 39.2332 241.026 38.0033 237.707 37.0364C234.396 36.0385 230.314 35.3656 225.772 34.9633C223.497 34.7545 221.105 34.5998 218.628 34.4373C216.15 34.2749 213.587 34.0893 210.962 33.8572C200.476 32.9599 191.026 31.6295 184.224 30.5001C180.82 29.9354 178.078 29.4326 176.177 29.0846C175.234 28.9066 174.502 28.7674 173.995 28.6746C173.754 28.6282 173.567 28.5972 173.427 28.574C173.294 28.5508 173.232 28.5431 173.232 28.5431Z" fill="#263238"/>
<path d="M0.747925 55.7711C0.747925 55.8252 4.8302 55.8717 9.86294 55.8717C14.8957 55.8717 18.9779 55.8252 18.9779 55.7711C18.9779 55.7169 14.8957 55.6705 9.86294 55.6705C4.8302 55.6705 0.747925 55.7169 0.747925 55.7711Z" fill="#263238"/>
<path d="M75.4287 66.1208C75.4287 66.175 98.4733 66.2214 126.893 66.2214C155.321 66.2214 178.358 66.175 178.358 66.1208C178.358 66.0667 155.321 66.0203 126.893 66.0203C98.4733 66.0125 75.4287 66.0589 75.4287 66.1208Z" fill="#263238"/>
<path d="M236.772 56.1192C236.772 56.1734 240.029 56.2198 244.049 56.2198C248.069 56.2198 251.325 56.1734 251.325 56.1192C251.325 56.0651 248.069 56.0187 244.049 56.0187C240.029 56.0109 236.772 56.0573 236.772 56.1192Z" fill="#263238"/>
<path d="M24.9066 11.6879C24.9066 11.6879 27.6411 14.7278 26.566 16.9556C25.4909 19.1833 14.3815 26.9959 14.3815 26.9959L6.31818 28.4966L24.9066 11.6879Z" fill="#455A64"/>
<path d="M101.582 6.25L103.397 25.6887L70.9491 24.7682L57.8687 17.2263L66.337 6.25H101.582Z" fill="#455A64"/>
<path d="M162.66 26.6865C162.66 26.6865 143.082 12.647 135.362 9.85461C127.906 7.16275 124.019 6.48978 117.023 6.28867C110.331 6.10302 106.248 6.28093 106.248 6.28093L111.421 26.0522L162.66 26.6865Z" fill="#455A64"/>
<path d="M165.527 26.7494C165.527 25.5194 164.857 24.3824 163.775 23.779L159.279 21.2728C157.994 20.5612 156.553 20.1821 155.08 20.1821C154.169 20.1821 153.265 20.3291 152.408 20.6076C150.484 21.2341 149.206 23.0442 149.128 25.0553C149.019 27.84 151.271 30.1606 154.083 30.1606H162.092C163.993 30.1529 165.527 28.629 165.527 26.7494Z" fill="#335437"/>
<path d="M165.527 26.7485C165.519 26.7485 165.511 26.8955 165.473 27.1817C165.434 27.4601 165.332 27.8778 165.075 28.3497C164.81 28.8138 164.374 29.3321 163.696 29.6956C163.361 29.8735 162.964 30.005 162.543 30.0592C162.115 30.1056 161.647 30.0824 161.164 30.0824C159.209 30.0747 156.879 30.0669 154.301 30.0592C153.662 30.0592 153.015 29.9818 152.392 29.7498C151.769 29.5177 151.185 29.1542 150.694 28.6823C150.203 28.2027 149.798 27.6148 149.549 26.9574C149.299 26.2999 149.198 25.5727 149.252 24.8534C149.362 23.4069 150.141 22.0609 151.278 21.2874C151.839 20.8852 152.486 20.6609 153.14 20.5062C153.787 20.3515 154.441 20.2818 155.08 20.2741C156.357 20.2741 157.565 20.5526 158.601 21.0244C159.115 21.2565 159.591 21.5427 160.058 21.7979C160.525 22.0532 160.97 22.3007 161.398 22.5405C162.247 23.0124 163.026 23.4378 163.704 23.8091C164.382 24.1727 164.826 24.6909 165.083 25.155C165.348 25.6269 165.441 26.0446 165.48 26.3231C165.519 26.6015 165.511 26.7485 165.527 26.7485C165.527 26.7485 165.55 26.6015 165.519 26.3153C165.488 26.0291 165.41 25.6037 165.153 25.1164C164.904 24.6368 164.452 24.0876 163.759 23.7086C163.081 23.3295 162.317 22.8886 161.468 22.4168C161.04 22.177 160.596 21.9294 160.136 21.6664C159.669 21.4112 159.201 21.1172 158.671 20.8775C157.62 20.3979 156.389 20.0962 155.08 20.0962C154.425 20.0962 153.755 20.1658 153.093 20.3205C152.431 20.4752 151.753 20.7073 151.161 21.125C149.977 21.9372 149.159 23.3295 149.05 24.8379C148.995 25.5882 149.097 26.3463 149.362 27.0347C149.626 27.7231 150.047 28.3342 150.553 28.8293C151.068 29.3243 151.675 29.7034 152.322 29.9432C152.969 30.1829 153.654 30.268 154.301 30.2603C156.879 30.2526 159.201 30.2448 161.164 30.2371C161.655 30.2294 162.115 30.2526 162.567 30.1984C163.011 30.1365 163.416 29.9973 163.759 29.8039C164.452 29.4172 164.896 28.8757 165.153 28.3961C165.402 27.9088 165.496 27.4833 165.519 27.1971C165.543 26.9032 165.527 26.7485 165.527 26.7485Z" fill="#263238"/>
<path d="M14.7009 78.621C14.7009 78.621 14.7009 78.5282 14.6931 78.3425C14.6775 78.1569 14.6619 77.8862 14.6386 77.5303C14.6152 77.1745 14.5763 76.7336 14.5529 76.2153C14.5373 75.6971 14.5139 75.0937 14.4906 74.4208C14.4828 73.7478 14.4906 72.9898 14.4983 72.1698C14.5529 71.3499 14.5529 70.4526 14.6697 69.5012C14.8411 67.5905 15.1605 65.4169 15.8305 63.0964C16.1811 61.9438 16.5629 60.7371 17.1082 59.5304C17.6224 58.316 18.2768 57.1016 19.0403 55.9103C20.5672 53.5124 22.733 51.3079 25.3117 49.4127C27.8982 47.5253 30.9599 46.0092 34.3021 45.0114C37.6442 43.9903 41.2902 43.6268 44.9908 43.5958C48.6991 43.5881 52.3295 44.0831 55.6561 45.1351C57.3233 45.6611 58.9126 46.3186 60.4084 47.0844C61.8964 47.8579 63.2598 48.7784 64.5296 49.7608C67.0538 51.7333 69.1806 53.9456 70.879 56.2275C71.7126 57.3723 72.3981 58.5712 72.9902 59.747C73.5512 60.9382 74.0575 62.0985 74.4471 63.2433C76.0675 67.8071 76.5817 71.7289 76.7609 74.413C76.8232 75.759 76.8154 76.811 76.7843 77.5226C76.7609 77.8707 76.7453 78.1414 76.7375 78.3348C76.7297 78.5205 76.7297 78.6133 76.7297 78.6133C76.7297 78.6133 76.7453 78.5205 76.7609 78.3425C76.7765 78.1569 76.7998 77.8862 76.831 77.5381C76.8777 76.8264 76.9011 75.7744 76.8466 74.4208C76.6908 71.7212 76.2 67.7917 74.5873 63.2047C74.1978 62.0521 73.6914 60.8841 73.1305 59.6851C72.5384 58.5016 71.8528 57.2949 71.0114 56.1346C69.3053 53.8373 67.1784 51.6095 64.6387 49.6216C63.3688 48.6392 61.9899 47.7032 60.4941 46.922C58.9905 46.1484 57.3934 45.4832 55.7184 44.9572C52.3607 43.8975 48.7147 43.3947 44.9908 43.4024C41.2747 43.4256 37.6131 43.8047 34.2397 44.8257C30.8742 45.8313 27.7969 47.3629 25.1948 49.2657C23.8938 50.2172 22.7096 51.2537 21.6501 52.3521C20.5906 53.4505 19.6557 54.6108 18.8922 55.8252C18.121 57.0319 17.4666 58.2541 16.9524 59.4763C16.4148 60.6907 16.0253 61.9051 15.6825 63.0654C15.0203 65.4015 14.7087 67.5828 14.5451 69.5012C14.436 70.4603 14.436 71.3576 14.3893 72.1775C14.3893 73.0052 14.3815 73.7555 14.3971 74.4285C14.4282 75.1015 14.4516 75.7048 14.475 76.2231C14.5061 76.7413 14.5529 77.1823 14.584 77.5381C14.6152 77.8862 14.6386 78.1569 14.6619 78.3425C14.6853 78.5282 14.7009 78.621 14.7009 78.621Z" fill="white"/>
<path d="M112.278 28.7441C112.278 28.7441 112.309 28.7518 112.372 28.7518C112.442 28.7518 112.535 28.7596 112.644 28.7596C112.902 28.7673 113.252 28.775 113.688 28.7828C114.615 28.7982 115.924 28.8214 117.537 28.8524C120.786 28.9143 125.273 29.0303 130.228 29.1618C135.183 29.2933 139.67 29.3938 142.919 29.417C144.547 29.4325 145.856 29.4325 146.767 29.417C147.204 29.4093 147.554 29.4016 147.811 29.4016C147.92 29.4016 148.006 29.3938 148.084 29.3938C148.146 29.3938 148.177 29.3861 148.177 29.3861C148.177 29.3861 148.146 29.3784 148.084 29.3784C148.014 29.3784 147.92 29.3706 147.811 29.3706C147.554 29.3629 147.204 29.3552 146.767 29.3474C145.84 29.332 144.531 29.3088 142.919 29.2778C139.67 29.2159 135.183 29.0999 130.228 28.9684C125.273 28.8369 120.786 28.7363 117.537 28.7131C115.909 28.6977 114.6 28.6977 113.688 28.7131C113.244 28.7209 112.902 28.7286 112.644 28.7286C112.535 28.7286 112.45 28.7363 112.372 28.7363C112.309 28.7363 112.278 28.7363 112.278 28.7441Z" fill="white"/>
<path d="M117.591 34.7313C117.591 34.7854 119.165 34.8319 121.105 34.8319C123.045 34.8319 124.619 34.7854 124.619 34.7313C124.619 34.6771 123.045 34.6307 121.105 34.6307C119.165 34.6307 117.591 34.6771 117.591 34.7313Z" fill="white"/>
<path d="M116.306 13.4206C116.283 13.4747 120.645 15.2771 126.044 17.4507C131.443 19.6243 135.845 21.3415 135.86 21.2873C135.884 21.2332 131.521 19.4309 126.122 17.2573C120.723 15.0837 116.329 13.3742 116.306 13.4206Z" fill="white"/>
<path d="M125.141 14.782C125.117 14.8361 129.27 16.6539 134.411 18.8353C139.561 21.0243 143.745 22.757 143.768 22.7029C143.791 22.6487 139.639 20.831 134.489 18.6496C129.355 16.4605 125.164 14.7279 125.141 14.782Z" fill="white"/>
<path d="M69.0949 12.6703C69.0716 12.7245 73.4343 14.5268 78.8332 16.7004C84.2321 18.874 88.6338 20.5912 88.6494 20.5371C88.6727 20.4829 84.31 18.6806 78.9111 16.507C73.5122 14.3334 69.1183 12.6162 69.0949 12.6703Z" fill="white"/>
<path d="M77.9372 14.0318C77.9139 14.0859 82.0663 15.9037 87.2081 18.085C92.3577 20.2741 96.5412 22.0068 96.5646 21.9526C96.5879 21.8985 92.4356 20.0807 87.286 17.8994C82.1442 15.7103 77.9606 13.9776 77.9372 14.0318Z" fill="white"/>
<path d="M68.2457 28.7441C68.2457 28.7983 76.9167 28.8988 87.6132 28.9607C98.3175 29.0226 106.988 29.0303 106.988 28.9685C106.988 28.9143 98.3175 28.8138 87.6132 28.7519C76.9167 28.69 68.2457 28.6823 68.2457 28.7441Z" fill="white"/>
<path d="M58.6399 34.3986C58.6399 34.4528 61.0706 34.5224 64.0699 34.5533C67.0693 34.5843 69.5078 34.561 69.5078 34.4992C69.5078 34.445 67.0771 34.3754 64.0777 34.3445C61.0706 34.3135 58.6399 34.3367 58.6399 34.3986Z" fill="white"/>
<path d="M224.712 31.4514C224.712 31.4592 224.79 31.4747 224.946 31.4979C225.125 31.5211 225.351 31.552 225.624 31.5829C225.92 31.6139 226.278 31.6603 226.699 31.7299C227.12 31.7995 227.595 31.8537 228.117 31.962C229.161 32.1399 230.4 32.4184 231.755 32.7742C233.111 33.1455 234.583 33.6173 236.094 34.1975C237.606 34.7931 239 35.4428 240.247 36.0849C241.486 36.7346 242.584 37.3689 243.472 37.9491C243.924 38.2275 244.314 38.506 244.664 38.738C245.015 38.9701 245.311 39.179 245.552 39.3569C245.778 39.5193 245.965 39.6508 246.113 39.7514C246.246 39.8365 246.316 39.8829 246.316 39.8751C246.324 39.8674 246.261 39.8132 246.137 39.7127C245.996 39.6044 245.817 39.4574 245.599 39.2873C245.365 39.1016 245.077 38.8773 244.726 38.6375C244.384 38.3977 243.994 38.1038 243.542 37.8253C242.654 37.2297 241.563 36.5799 240.325 35.9147C239.078 35.2649 237.668 34.5997 236.157 34.0041C234.638 33.4162 233.157 32.9521 231.794 32.5885C230.431 32.2404 229.184 31.9774 228.125 31.815C227.603 31.7222 227.12 31.668 226.699 31.6139C226.278 31.5597 225.912 31.5211 225.616 31.5056C225.336 31.4824 225.11 31.4669 224.931 31.4592C224.798 31.4514 224.72 31.4437 224.712 31.4514Z" fill="white"/>
<path d="M153.109 22.0609C153.124 22.0763 153.226 21.9062 153.498 21.6896C153.763 21.4807 154.215 21.2332 154.823 21.1558C155.43 21.0785 156.171 21.179 156.957 21.3879C157.752 21.589 158.617 21.8675 159.482 22.2388C161.227 22.9814 162.645 23.9715 163.587 24.7759C164.538 25.5727 165.044 26.1605 165.075 26.1296C165.083 26.1219 164.966 25.9672 164.74 25.7042C164.507 25.4412 164.156 25.0776 163.689 24.6599C162.761 23.8245 161.336 22.8035 159.567 22.0454C158.687 21.6664 157.814 21.3879 157.004 21.1945C156.202 20.9934 155.43 20.9006 154.799 21.0089C154.161 21.1094 153.701 21.3879 153.444 21.6277C153.311 21.7515 153.226 21.8598 153.179 21.9371C153.124 22.0145 153.101 22.0531 153.109 22.0609Z" fill="white"/>
</g>
<defs>
<clipPath id="clip0">
<rect width="253" height="97" fill="white"/>
</clipPath>
</defs>
</svg>
