<svg width="189" height="189" viewBox="0 0 189 189" fill="none" xmlns="http://www.w3.org/2000/svg">
<g clip-path="url(#clip0)">
<path d="M189 94.5097C189 146.702 146.687 189.019 94.5 189.019C42.3126 189.019 0 146.702 0 94.5097C0.0194005 42.3169 42.332 0 94.5194 0C146.707 0 189 42.3169 189 94.5097Z" fill="#FFCC00"/>
<path d="M158.347 148.623L122.068 184.906C113.338 187.564 104.084 189 94.5 189C42.3126 189 0 146.702 0 94.5097C0 85.7591 1.18343 77.2996 3.41449 69.267C11.3105 60.9627 19.2065 52.6778 27.1025 44.3736C29.6828 52.0376 32.2825 59.7016 34.8628 67.385H43.4378V70.9744H32.4183V148.623H56.0869V148.759H134.756V148.623H158.347Z" fill="#B3B3B3"/>
<path d="M157.959 84.1876H37.1133V149.108H157.959V84.1876Z" fill="#A8A8A8"/>
<path opacity="0.63" d="M157.959 63.6209V150.913L152.857 122.139H42.9333L37.443 150.913V63.6209H157.959Z" fill="#B3B3B3"/>
<path d="M64.5455 96.6828C64.2351 97.2454 64.0217 97.6723 63.9441 97.9051C63.7307 98.5842 63.6337 98.9141 63.5755 99.0887C63.1875 98.9917 62.7607 98.8365 62.4115 98.9335C62.0622 99.0693 62.004 99.3991 61.616 99.5155C61.131 99.5931 60.4326 99.3409 59.967 99.2827C58.9582 99.1081 57.9105 98.9723 56.9017 98.7394C55.2721 98.3708 54.7094 96.8574 54.8064 95.344C54.9228 93.9276 56.3585 93.462 57.5031 93.2873C58.6477 93.0739 60.1998 92.5694 61.2668 93.2097C62.8189 94.1798 62.1787 97.1096 64.5455 96.6828Z" fill="#1A9194"/>
<path d="M140.984 107.936C140.906 106.52 137.589 103.474 136.657 102.542C136.037 101.921 133.844 100.039 133.107 99.5738C132.68 99.3021 132.583 99.3021 132.467 99.0305C132.389 98.8365 132.312 98.5066 132.098 97.8275C132.021 97.5947 131.827 97.1678 131.497 96.6052C129.596 93.1709 124.066 84.6338 123.601 84.1487C123.058 83.6249 121.855 82.5383 120.128 82.2279C118.401 81.9369 101.251 81.0443 98.0115 81.0443C94.7716 81.0443 77.6021 81.9757 75.8949 82.2861C74.1682 82.5965 72.9654 83.6637 72.4222 84.207C71.9565 84.6726 66.4468 93.2485 64.5455 96.6634C64.2351 97.2455 64.0411 97.6723 63.9441 97.9051C63.7307 98.5842 63.6531 98.9141 63.5755 99.1081C63.4979 99.3021 63.0711 99.5932 62.8965 99.6902C62.8577 99.729 62.8383 99.729 62.8383 99.729C62.3727 100.059 60.452 101.359 59.4044 102.465C57.833 104.114 55.1557 106.617 55.0781 108.033C55.0005 109.45 54.4185 110.459 54.5543 113.291C54.6125 114.669 55.0005 118.821 55.3885 122.779C55.7765 126.931 56.1451 130.889 56.2033 131.18C56.2809 131.782 56.0675 132.461 56.3391 132.985C56.6107 133.528 57.2897 133.664 58.3568 133.664C58.6866 133.664 62.2757 133.722 67.184 133.78C78.9019 133.916 98.0891 134.168 98.0891 134.168C98.0891 134.168 117.858 133.877 129.499 133.703C134.116 133.645 137.472 133.586 137.783 133.586C138.85 133.586 139.529 133.451 139.8 132.927C140.052 132.383 139.858 131.704 139.936 131.103C139.975 130.695 140.673 123.575 141.139 118.317C141.333 116.008 141.507 114.067 141.546 113.214C141.643 110.362 141.061 109.353 140.984 107.936ZM98.0115 97.4201C88.0008 97.2066 65.7096 98.5066 65.0888 98.526C64.4097 98.5066 73.2952 84.6338 73.2952 84.6338L98.0309 83.7801L122.708 84.595C122.708 84.595 131.613 98.4484 130.954 98.4484C130.294 98.4484 108.022 97.1872 98.0115 97.4201Z" fill="#1A9194"/>
<path d="M130.954 98.429C130.313 98.4484 108.022 97.1872 98.0115 97.4201C88.0008 97.2066 65.729 98.5066 65.0888 98.5066C64.4098 98.5066 73.2952 84.6338 73.2952 84.6338L98.0309 83.7801L122.708 84.595C122.708 84.5756 131.633 98.429 130.954 98.429Z" fill="#3C5D64"/>
<path d="M67.1258 133.761V140.106C67.1258 140.552 66.7572 140.901 66.311 140.921H56.1451C55.6989 140.921 55.3497 140.552 55.3303 140.106L55.3109 122.74C55.6989 126.892 56.0869 130.851 56.1257 131.142C56.1839 131.743 55.9899 132.422 56.2615 132.965C56.5331 133.509 57.2122 133.645 58.2792 133.645C58.6478 133.664 62.2175 133.703 67.1258 133.761Z" fill="#333333"/>
<path d="M141.275 118.782L141.294 140.047C141.294 140.494 140.925 140.862 140.479 140.862H130.313C129.867 140.862 129.518 140.494 129.518 140.067V133.703C134.135 133.645 137.492 133.586 137.783 133.586C138.85 133.586 139.529 133.451 139.8 132.927C140.052 132.383 139.858 131.704 139.936 131.103C139.975 130.695 140.673 123.575 141.139 118.317C141.216 118.433 141.275 118.608 141.275 118.782Z" fill="#333333"/>
<path d="M139.16 98.6813C138.151 98.9141 137.084 99.0499 136.095 99.2245C135.629 99.3021 134.911 99.5544 134.446 99.4574C134.038 99.3603 133.98 99.0111 133.631 98.8753C133.282 98.7589 132.855 98.9335 132.467 99.0305C132.409 98.8365 132.312 98.4872 132.079 97.8275C132.001 97.5947 131.807 97.1679 131.477 96.6052C133.825 97.032 133.204 94.1023 134.776 93.1321C135.843 92.4918 137.395 92.9963 138.539 93.1903C139.684 93.365 141.139 93.8306 141.236 95.247C141.333 96.7992 140.77 98.2932 139.16 98.6813Z" fill="#1A9194"/>
<path opacity="0.63" d="M120.536 108.324H75.5069C75.0219 108.324 74.6145 108.848 74.6145 109.488V119.714C74.6145 120.354 75.0219 120.858 75.5069 120.858H120.536C121.04 120.858 121.409 120.334 121.409 119.714V109.488C121.428 108.848 121.04 108.324 120.536 108.324ZM120.439 119.714C120.439 119.772 120.419 119.83 120.4 119.869H75.6427C75.6427 119.83 75.6233 119.772 75.6233 119.714V109.488C75.6233 109.43 75.6427 109.372 75.6427 109.333H120.4C120.419 109.372 120.439 109.43 120.439 109.488V119.714Z" fill="#F2F2F2"/>
<path opacity="0.63" d="M120.438 109.488V119.714C120.438 119.772 120.419 119.83 120.4 119.869H75.6426C75.6426 119.83 75.6232 119.772 75.6232 119.714V109.488C75.6232 109.43 75.6426 109.372 75.6426 109.333H120.4C120.419 109.372 120.438 109.411 120.438 109.488Z" fill="#B3B3B3"/>
<path opacity="0.63" d="M120.438 109.488V119.714C120.438 119.772 120.419 119.83 120.4 119.869H75.6426C75.6426 119.83 75.6232 119.772 75.6232 119.714V109.488C75.6232 109.43 75.6426 109.372 75.6426 109.333H120.4C120.419 109.372 120.438 109.411 120.438 109.488Z" fill="#B3B3B3"/>
<path d="M71.4521 110.594C71.4715 111.778 70.9283 116.027 70.0165 116.92C68.6972 118.336 65.4767 118.161 63.6725 118.161C61.3638 118.161 59.1134 117.987 56.8241 117.929C56.6301 115.833 56.4749 114.087 56.4361 113.291C56.3197 110.711 56.8047 109.644 56.9405 108.402C59.6954 108.402 62.4891 108.305 65.2051 108.402C67.0288 108.46 71.3745 107.82 71.4521 110.594Z" fill="#EBEAB7"/>
<path d="M124.765 110.594C124.745 111.778 125.289 116.027 126.181 116.92C127.5 118.336 130.721 118.161 132.544 118.161C134.853 118.161 137.123 117.987 139.412 117.929C139.606 115.833 139.761 114.087 139.781 113.291C139.897 110.711 139.412 109.644 139.276 108.402C136.541 108.402 133.747 108.305 131.031 108.402C129.188 108.46 124.842 107.82 124.765 110.594Z" fill="#EBEAB7"/>
<path opacity="0.63" d="M139.781 132.907C139.509 133.451 138.83 133.586 137.763 133.586C137.453 133.586 134.096 133.645 129.479 133.703C117.839 133.877 98.0309 134.149 98.0309 134.149C98.0309 134.149 78.8437 133.897 67.1258 133.761C62.2175 133.703 58.6284 133.645 58.2986 133.645C57.2315 133.645 56.5525 133.509 56.2809 132.965C56.0287 132.442 56.2227 131.763 56.1451 131.161C56.1063 130.851 55.6989 126.912 55.3303 122.76L55.2721 122.139H140.751C140.363 126.485 139.936 130.754 139.897 131.083C139.839 131.704 140.033 132.364 139.781 132.907Z" fill="#B3B3B3"/>
<path d="M68.8524 128.387C68.8524 128.93 68.4062 129.376 67.863 129.376H58.0851C57.5419 129.376 57.0957 128.93 57.0957 128.387V125.845C57.0957 125.302 57.5419 124.855 58.0851 124.855H67.863C68.4062 124.855 68.8524 125.302 68.8524 125.845V128.387Z" fill="#F3BA12"/>
<path d="M138.966 128.387C138.966 128.93 138.52 129.376 137.977 129.376H128.218C127.675 129.376 127.229 128.93 127.229 128.387V125.845C127.229 125.302 127.675 124.855 128.218 124.855H137.977C138.539 124.855 138.966 125.302 138.966 125.845V128.387Z" fill="#F3BA12"/>
<path opacity="0.63" d="M120.438 110.439H75.6232V111.351H120.438V110.439Z" fill="#F2F2F2"/>
<path opacity="0.63" d="M120.438 112.341H75.6232V113.253H120.438V112.341Z" fill="#F2F2F2"/>
<path opacity="0.63" d="M120.438 114.261H75.6232V115.154H120.438V114.261Z" fill="#F2F2F2"/>
<path opacity="0.63" d="M120.438 116.163H75.6232V117.075H120.438V116.163Z" fill="#F2F2F2"/>
<path opacity="0.63" d="M120.438 118.064H75.6232V118.976H120.438V118.064Z" fill="#F2F2F2"/>
<path opacity="0.63" d="M139.16 98.6618C138.151 98.8947 137.103 99.0499 136.075 99.2051C135.61 99.2633 134.911 99.535 134.426 99.4379C134.038 99.3215 133.98 98.9917 133.631 98.8559C133.282 98.7395 132.855 98.9141 132.467 99.0111C132.564 99.3021 132.661 99.3021 133.107 99.5544C133.844 100.02 136.036 101.902 136.657 102.523C137.045 102.911 137.841 103.668 138.656 104.521C130.197 101.98 115.161 100.272 98.0114 100.272C80.8419 100.272 65.8065 101.98 57.3673 104.521C58.0657 103.765 58.8029 103.027 59.385 102.426C60.4326 101.32 62.3338 100.039 62.7994 99.6902C62.7994 99.6902 62.8188 99.6902 62.8576 99.6514C63.0323 99.5544 63.4785 99.2439 63.5561 99.0693C63.1681 98.9723 62.7412 98.7977 62.392 98.9141C62.0428 99.0499 61.9846 99.3797 61.5772 99.4961C61.1116 99.5738 60.3938 99.3215 59.9282 99.2439C58.9193 99.0887 57.8717 98.9529 56.8629 98.72C55.2332 98.332 54.6706 96.838 54.7676 95.3052C54.8646 93.8888 56.3003 93.4232 57.4643 93.2485C58.6089 93.0351 60.161 92.5306 61.228 93.1903C62.7994 94.141 62.1592 97.0902 64.5261 96.644C66.4273 93.2291 71.9371 84.6532 72.4027 84.1875C72.9459 83.6443 74.1294 82.5771 75.856 82.2667C77.5826 81.9757 94.7521 81.0443 97.9726 81.0443C101.193 81.0443 118.363 81.9369 120.089 82.2279C121.816 82.5383 123.038 83.5861 123.562 84.1487C124.028 84.6338 129.557 93.1709 131.458 96.6052C133.805 97.0126 133.185 94.1022 134.756 93.1515C135.823 92.5112 137.375 93.0157 138.52 93.2097C139.664 93.3844 141.119 93.85 141.197 95.247C141.333 96.7992 140.77 98.2932 139.16 98.6618Z" fill="#B3B3B3"/>
<path d="M162.926 59.3329V150.913H157.959V63.6208H37.443V150.913H32.2631V59.3329H162.926Z" fill="#F2F2F2"/>
<path d="M168.94 44.3736V55.3748L162.925 59.3329H32.2628L27.1023 55.3748V44.3736H168.94Z" fill="#F2F2F2"/>
<path opacity="0.63" d="M168.94 55.3748L162.926 59.3329H32.2631L27.0831 55.3748H168.94Z" fill="#B3B3B3"/>
<path d="M157.959 63.6209H37.443V84.4204H157.959V63.6209Z" fill="#CCCCCC"/>
<path d="M157.959 64.9014H37.443V67.4431H157.959V64.9014Z" fill="#F2F2F2"/>
<path d="M157.959 68.2969H37.443V70.858H157.959V68.2969Z" fill="#F2F2F2"/>
<path d="M157.959 71.6923H37.443V74.2534H157.959V71.6923Z" fill="#F2F2F2"/>
<path d="M157.959 75.1072H37.443V77.6489H157.959V75.1072Z" fill="#F2F2F2"/>
<path d="M157.959 78.5026H37.443V81.0443H157.959V78.5026Z" fill="#F2F2F2"/>
<path d="M157.959 81.9174H37.443V84.4592H157.959V81.9174Z" fill="#F2F2F2"/>
</g>
<defs>
<clipPath id="clip0">
<rect width="189" height="189" fill="white"/>
</clipPath>
</defs>
</svg>
