<svg width="189" height="189" viewBox="0 0 189 189" fill="none" xmlns="http://www.w3.org/2000/svg">
<g clip-path="url(#clip0)">
<path d="M186.382 116.663C198.628 65.9233 167.421 14.8637 116.681 2.61848C65.9414 -9.62676 14.8818 21.5794 2.63657 72.3194C-9.60867 123.059 21.5975 174.119 72.3375 186.364C123.077 198.609 174.137 167.403 186.382 116.663Z" fill="#FFCC00"/>
<path d="M113.408 92.8799C110.886 97.9439 103.377 101.63 94.5098 101.63C85.3324 101.63 77.6102 97.6917 75.3789 92.356L79.4728 90.959V81.316C83.722 85.5457 89.0771 88.0487 94.8979 88.0487C100.369 88.0487 105.433 85.8368 109.547 82.0727V91.2889L113.408 92.8799Z" fill="#D6B69C"/>
<path d="M109.547 81.1801V82.0726C105.433 85.8561 100.369 88.0486 94.8978 88.0486C89.0771 88.0486 83.7026 85.5457 79.4728 81.3159V81.1801H109.547Z" fill="#F0E8D6"/>
<path d="M72.6431 66.473C71.964 66.5895 71.2849 66.4536 70.6252 66.0462C68.8208 64.979 67.2686 62.1657 66.7253 58.6538C66.0074 53.8808 67.482 49.6316 70.0431 49.166C70.276 49.1272 70.5088 49.1078 70.7416 49.1466C70.8774 49.1466 71.0133 49.166 71.1491 49.2048C71.6924 49.3406 72.2356 49.6316 72.7595 50.0973C74.2535 51.3973 75.5147 53.939 75.9609 57.0046C76.6594 61.7776 75.1848 66.0074 72.6431 66.473Z" fill="#CBAC94"/>
<path d="M123.09 58.6538C122.488 62.6313 120.567 65.7163 118.472 66.376C118.045 66.5118 117.618 66.57 117.172 66.473C114.63 66.0268 113.136 61.7776 113.873 57.0046C114.32 54.0942 115.445 51.6689 116.861 50.3107C117.366 49.8063 117.909 49.457 118.472 49.2824C118.918 49.1466 119.364 49.0884 119.791 49.1854C119.811 49.1854 119.869 49.2048 119.888 49.2242C122.372 49.7287 123.808 53.9196 123.09 58.6538Z" fill="#CBAC94"/>
<path d="M119.811 56.83C119.811 67.2103 115.775 76.4071 109.547 82.0727C105.433 85.8562 100.369 88.0487 94.8978 88.0487C89.0771 88.0487 83.7026 85.5457 79.4728 81.316C73.7103 75.5922 70.0238 66.7447 70.0238 56.83C70.0238 39.6005 81.1803 25.6113 94.9172 25.6113C108.654 25.6113 119.811 39.6005 119.811 56.83Z" fill="#E4C5A9"/>
<path d="M142.57 99.5543V148.992H46.4303V99.5543L74.8938 90.9784C75.0102 91.4441 75.1654 91.9291 75.3595 92.3754C77.6102 97.6917 85.3324 101.65 94.4904 101.65C103.357 101.65 110.866 97.9439 113.388 92.8992C113.699 92.2784 113.932 91.6575 114.087 90.9978L142.57 99.5543Z" fill="#3FA6BD"/>
<path d="M132.364 115.212H56.636V154.774H132.364V115.212Z" fill="#A51E0D"/>
<path d="M69.5194 125.942H58.4211V94.9171L69.5194 91.4635V125.942Z" fill="#D82A0D"/>
<path d="M119.811 125.942H130.909V94.9171L119.811 91.4635V125.942Z" fill="#D82A0D"/>
<path d="M67.5791 120.548C67.5791 122.546 65.9687 124.157 63.9703 124.157C61.9718 124.157 60.342 122.546 60.342 120.548C60.342 118.549 61.9718 116.939 63.9703 116.939C65.9687 116.939 67.5791 118.549 67.5791 120.548Z" fill="#8C1C08"/>
<path d="M128.969 120.548C128.969 122.546 127.358 124.157 125.36 124.157C123.361 124.157 121.732 122.546 121.732 120.548C121.732 118.549 123.342 116.939 125.36 116.939C127.358 116.939 128.969 118.549 128.969 120.548Z" fill="#8C1C08"/>
<path opacity="0.18" d="M109.547 82.0727L90.28 101.339H46.4303V99.5543L58.4017 95.9455V94.9171L69.5193 91.4829V92.5888L74.8938 90.959C75.0102 91.4247 75.1654 91.9098 75.3789 92.356L79.4728 90.959V81.316C83.722 85.5457 89.077 88.0487 94.9172 88.0487C100.369 88.0487 105.433 85.8562 109.547 82.0727Z" fill="#725439"/>
<path d="M120.761 39.7558V50.0779C120.761 49.6122 119.267 49.1854 116.687 48.8361C116.57 48.8167 116.435 48.7973 116.318 48.7779L113.815 52.5614C113.796 52.5808 113.796 52.6002 113.776 52.6196C112.185 55.0255 112.03 55.6076 109.915 55.6076H109.566C108.15 54.8509 102.116 54.2688 94.8978 54.2688C87.6995 54.2688 81.7235 54.8315 80.2683 55.6076H79.9385C77.8042 55.6076 77.6296 55.0449 76.0774 52.6196C76.058 52.6002 76.058 52.5808 76.0386 52.5614L73.5162 48.7779C73.3998 48.7973 73.264 48.8167 73.1476 48.8361C70.567 49.1854 69.0536 49.6122 69.0536 50.0779V39.7558C69.0536 28.4247 80.6176 20.7607 94.8978 20.7607C109.178 20.7607 120.761 28.4247 120.761 39.7558Z" fill="#D82A0D"/>
<path opacity="0.31" d="M116.667 48.8361C116.551 48.8167 116.415 48.7973 116.299 48.7779L113.796 52.5614C113.776 52.5808 113.776 52.6002 113.757 52.6196C112.166 55.0255 112.011 55.6076 109.896 55.6076H109.547C108.13 54.8509 102.096 54.2688 94.8784 54.2688C87.6801 54.2688 81.7041 54.8315 80.2489 55.6076H79.9385C77.8042 55.6076 77.6296 55.0449 76.0774 52.6196C76.058 52.6002 76.058 52.5808 76.0386 52.5614L73.5162 48.7779C73.3998 48.7973 73.264 48.8167 73.1476 48.8361C77.746 47.963 85.7592 47.4003 94.9172 47.4003C104.056 47.4003 112.088 47.963 116.667 48.8361Z" fill="#737272"/>
<path d="M115.581 131.413H73.3998V139.038H115.581V131.413Z" fill="#D82A0D"/>
<path d="M108.771 123.128C106.85 125.476 103.881 126.485 101.107 125.961L98.0798 131.433H90.7262L95.7709 122.333C94.0052 119.5 94.141 115.794 96.3529 113.058C98.2156 110.769 101.087 109.779 103.804 110.187L99.7678 115.154C99.2051 115.833 99.3215 116.842 100.001 117.385L103.765 120.431C104.424 120.994 105.433 120.878 105.977 120.199L109.993 115.251C111.002 117.812 110.614 120.819 108.771 123.128Z" fill="#D5DED8"/>
<path d="M98.8365 126.019C98.8365 126.252 98.7783 126.504 98.6425 126.718L96.0426 131.413H92.7247L96.1008 125.321C96.4888 124.622 97.3813 124.351 98.0798 124.739C98.5843 125.03 98.8365 125.515 98.8365 126.019Z" fill="#8AC6CC"/>
<g opacity="0.39">
<path opacity="0.39" d="M96.6441 147.983C95.8874 149.458 94.8202 150.796 93.2486 151.864C89.9114 154.075 85.2548 153.687 81.9757 151.689C79.8027 150.35 77.6878 147.576 77.3579 144.917C77.1833 143.715 77.2415 142.531 77.455 141.386C78.3281 143.656 80.8892 145.344 82.8683 146.373C86.5159 148.313 92.5501 149.361 96.6441 147.983Z" fill="#725439"/>
</g>
<path d="M142.57 148.992L102.911 188.631C100.136 188.884 97.3231 189 94.4903 189C44.8587 189 4.15217 150.738 0.271667 102.096L72.6625 29.7053C70.373 32.538 69.0536 35.9335 69.0536 39.7558V49.5734C67.1134 50.7958 66.085 54.5017 66.7059 58.6538C67.2492 62.1657 68.8014 64.979 70.6058 66.0462C70.7999 66.1626 70.9939 66.2596 71.1879 66.3178C72.7013 72.2938 75.6117 77.4937 79.4534 81.316V90.959L75.3594 92.356C75.243 92.1232 75.1654 91.8903 75.0878 91.6575C75.0102 91.4247 74.9326 91.1919 74.8938 90.959H74.8744L69.4999 92.5888V91.4635L58.4016 94.9171H58.3822V95.9455L46.4303 99.5543V148.992H56.636V154.774H132.345V148.992H142.57Z" fill="#D1D1D1"/>
</g>
<defs>
<clipPath id="clip0">
<rect width="189" height="189" fill="white"/>
</clipPath>
</defs>
</svg>
