<svg width="192" height="192" viewBox="0 0 192 192" fill="none" xmlns="http://www.w3.org/2000/svg">
<g clip-path="url(#clip0)">
<path d="M192 96.0099C192 149.031 149.011 192.02 95.9901 192.02C42.9886 192 0 149.031 0 96.0099C0 42.9886 42.9886 0 96.0098 0C149.031 0 192 42.9886 192 96.0099Z" fill="#FFCC00"/>
<path d="M87.9285 69.3612C91.299 68.6319 96.877 68.2574 100.918 69.243C102.1 63.4481 104.268 56.6874 108.289 51.8977C107.442 51.6218 106.614 51.3853 105.806 51.2276C103.303 53.4154 100.05 54.7163 96.4828 54.7163C93.8613 54.7163 91.3975 54.0068 89.2885 52.765C88.6972 53.0409 88.1453 53.3366 87.6131 53.6914C87.278 59.0723 86.9627 64.0591 87.9285 69.3612Z" fill="#3FA6BD"/>
<path d="M74.7422 111.108C74.7422 114.735 77.6791 117.672 81.3058 117.672C81.6212 117.672 81.9365 117.652 82.2519 117.593C82.0942 113.059 81.9562 108.625 81.838 104.525C81.6606 104.525 81.4832 104.505 81.3058 104.505C80.0837 104.505 78.9405 104.84 77.9747 105.412C76.0431 106.575 74.7422 108.684 74.7422 111.108Z" fill="#E4C5A9"/>
<path d="M50.6559 129.695L54.6178 127.645C54.6572 127.625 54.6769 127.586 54.7163 127.547V127.507L55.0317 126.049L53.9082 123.9L52.5284 123.329L52.489 123.309C52.4496 123.309 52.4102 123.309 52.351 123.329L48.4089 125.378C48.3104 125.438 48.271 125.556 48.3104 125.654L50.3603 129.616C50.4391 129.715 50.5574 129.754 50.6559 129.695Z" fill="#2EA9B6"/>
<path d="M84.9158 107.823L53.9286 123.897L55.045 126.05L86.0322 109.975L84.9158 107.823Z" fill="#58597C"/>
<path d="M56.9239 101.036L58.6979 104.446C58.7176 104.485 58.757 104.525 58.7767 104.525L58.8161 104.544L59.9396 104.899L62.0881 103.795L62.4429 102.672V102.633C62.4429 102.593 62.4429 102.554 62.4231 102.514L60.6492 99.0846C60.6098 99.0058 60.4915 98.9664 60.4127 99.0058L57.0028 100.78C56.9239 100.839 56.8845 100.957 56.9239 101.036Z" fill="#2EA9B6"/>
<path d="M78.8025 134.504L77.2059 131.41C77.1862 131.37 77.1665 131.351 77.1271 131.331H77.1074L76.2007 130.957L74.0523 132.08L73.8354 133.046V133.066C73.8354 133.105 73.8355 133.144 73.8552 133.164L75.4517 136.259C75.4911 136.337 75.5897 136.377 75.6685 136.337L78.7631 134.741C78.8222 134.682 78.8419 134.583 78.8025 134.504Z" fill="#2EA9B6"/>
<path d="M62.0962 103.794L59.9443 104.911L74.0435 132.08L76.1954 130.964L62.0962 103.794Z" fill="#58597C"/>
<path d="M69.0458 122.816L71.49 121.555L71.4308 121.436C70.7607 119.702 71.3717 117.77 72.9288 116.962L72.9485 116.942L71.6871 114.498L71.6476 114.518C70.0905 115.326 68.1589 114.715 67.1339 113.158L67.0748 113.04L64.6307 114.301L64.6898 114.419C65.36 116.154 64.749 118.086 63.1918 118.894L63.1721 118.913L64.4336 121.358L64.4533 121.338C66.0104 120.53 67.9421 121.141 68.967 122.678L69.0458 122.816Z" fill="#2EA9B6"/>
<path opacity="0.25" d="M67.0157 121.16L69.0656 114.676C68.2968 114.419 67.607 113.907 67.1142 113.158L67.0551 113.04L64.611 114.301L64.6701 114.419C65.3403 116.154 64.7292 118.086 63.1721 118.894L63.1327 118.913L64.3942 121.358L64.4336 121.338C65.2614 120.924 66.1878 120.884 67.0157 121.16Z" fill="#666666"/>
<path d="M81.3256 83.6119C81.3256 85.8392 81.5424 94.0979 81.8577 104.544C81.976 108.625 82.114 113.059 82.2717 117.612C82.8039 133.243 83.5134 150.233 84.2427 159.3L85.4451 159.418L96.8574 160.601L98.6905 160.798L98.1583 123.171C98.8876 127.152 99.341 131.173 99.4395 135.273C99.5972 141.442 100.484 153.269 101.312 160.916H104.939L116.469 161.567L117.534 161.626C116.942 155.161 116.45 130.543 116.174 120.687C113.04 119.84 110.714 116.962 110.714 113.532C110.714 110.95 112.015 108.684 114.025 107.363C114.301 100.248 112.251 89.3476 110.97 81.5423C109.334 80.5962 107.521 79.9063 105.668 79.4727C105.51 77.0286 105.629 74.4859 105.905 72.1995C106.358 68.4348 109.393 58.4021 111.68 53.238C110.576 52.7058 109.433 52.2525 108.329 51.8977C104.288 56.6873 102.14 63.448 100.957 69.2429C96.9363 68.2771 91.3385 68.6516 87.968 69.3612C87.0022 64.0591 87.3176 59.0723 87.6329 53.6716C86.2335 54.5389 85.0508 55.623 84.0456 56.845H84.0259C83.4149 60.59 83.2572 64.4533 82.8433 68.1194C82.6067 70.1693 82.5279 76.7723 83.336 81.7197C82.5476 82.1927 81.8577 82.8629 81.3256 83.6119Z" fill="#D3280E"/>
<path d="M89.939 132.021L88.3228 132.317L89.2491 137.422L90.8851 137.126C91.2596 138.565 91.8115 139.945 92.4225 141.285L90.9837 142.113L93.6052 146.607L95.0637 145.759C95.931 146.961 96.8574 148.105 97.9218 149.149L96.8574 150.431L100.859 153.762L101.923 152.461C103.125 153.289 104.426 154.038 105.786 154.668L105.234 156.245L110.123 157.999L110.694 156.423C112.133 156.797 113.611 157.034 115.07 157.171V158.827L120.254 158.788V157.132C121.752 156.994 123.191 156.718 124.61 156.324L125.181 157.901L130.05 156.087L129.478 154.53C130.819 153.9 132.1 153.151 133.322 152.303L134.386 153.564L138.368 150.214L137.303 148.952C138.328 147.908 139.274 146.764 140.122 145.523L141.561 146.35L141.797 145.937L144.163 141.837L142.724 141.009C143.019 140.339 143.295 139.649 143.552 138.959C143.788 138.269 144.005 137.56 144.202 136.83L145.858 137.146L146.745 132.021L145.109 131.745C145.227 130.267 145.227 128.769 145.089 127.31L146.725 127.014L145.779 121.89L144.143 122.185C143.768 120.746 143.236 119.367 142.625 118.026L144.064 117.199L141.423 112.685L139.984 113.552C139.136 112.35 138.19 111.207 137.106 110.162L138.171 108.881L134.169 105.55L133.105 106.831C131.903 106.003 130.621 105.254 129.261 104.623L129.833 103.066L124.925 101.312L124.373 102.869C122.915 102.495 121.436 102.258 119.998 102.12V100.464L114.794 100.504L114.814 102.159C113.316 102.297 111.857 102.593 110.438 102.968L109.866 101.371L104.998 103.204L105.569 104.761C104.998 105.037 104.426 105.333 103.874 105.648C103.145 106.082 102.435 106.516 101.746 107.008L100.662 105.747L96.68 109.098L97.7444 110.359C96.7194 111.423 95.7733 112.547 94.9258 113.789L93.4672 112.961L92.4225 114.794L90.8851 117.494L92.3437 118.322C92.0283 119.012 91.7524 119.682 91.5159 120.372C91.2596 121.062 91.0428 121.771 90.8654 122.481L89.2097 122.205L88.4804 126.522L88.3228 127.35L89.9587 127.645C89.8207 129.064 89.8208 130.562 89.939 132.021ZM117.514 113.434C126.463 113.434 133.736 120.707 133.736 129.656C133.736 138.604 126.463 145.877 117.514 145.877C108.546 145.877 101.292 138.604 101.292 129.656C101.292 120.707 108.565 113.434 117.514 113.434Z" fill="#333245"/>
<path d="M105.648 79.453C107.501 79.8866 109.314 80.5765 110.95 81.5226C112.251 89.3279 114.281 100.228 114.005 107.343L124.334 109.511C126.66 78.4872 123.94 63.6254 119.84 59.092C117.79 56.8056 114.794 54.736 111.64 53.238C109.354 58.4022 106.318 68.4348 105.865 72.1995C105.609 74.4662 105.491 77.0089 105.648 79.453Z" fill="#3FA6BD"/>
<path d="M77.9944 105.431C78.9602 104.86 80.1034 104.525 81.3255 104.525C81.5029 104.525 81.6803 104.544 81.8577 104.544C81.5423 94.0979 81.3452 85.8392 81.3255 83.6119C81.8774 82.8629 82.5475 82.2125 83.3162 81.7394C82.4884 76.7921 82.5672 70.1693 82.8235 68.1392C83.2177 64.473 83.3754 60.6097 84.0061 56.8647C78.2309 63.8226 78.3689 75.1955 78.0141 79.5712C77.344 87.1401 77.4425 96.9559 77.9944 105.431Z" fill="#3FA6BD"/>
<path d="M82.2518 40.4853C82.2518 45.7086 85.0704 50.2617 89.2688 52.7453C91.3778 53.987 93.8416 54.6966 96.4631 54.6966C100.031 54.6966 103.303 53.3957 105.786 51.2078C108.782 48.6061 110.674 44.7822 110.674 40.4853C110.674 40.2291 110.674 39.9926 110.655 39.756L82.922 36.149C82.4884 37.5288 82.2518 38.9873 82.2518 40.4853Z" fill="#E4C5A9"/>
<path opacity="0.19" d="M82.2518 40.4853C82.2518 42.6929 82.7643 44.7822 83.6513 46.635C83.8484 46.5759 84.0258 46.497 84.2229 46.4379C92.8955 43.5405 101.351 42.7126 110.201 44.2106C110.517 43.028 110.694 41.7665 110.694 40.4853C110.694 40.2291 110.694 39.9926 110.674 39.756L82.9417 36.149C82.4884 37.5288 82.2518 38.9873 82.2518 40.4853Z" fill="#666666"/>
<path d="M82.4293 36.6615L111.285 40.8401C110.891 32.1084 107.107 26.5303 96.8574 24.5001C93.8614 23.9088 91.4764 24.579 89.5251 25.939C92.0086 26.0375 95.182 26.9245 93.8023 29.4474C92.8956 31.1228 89.9784 31.6944 88.4016 31.8718C87.3372 31.9507 86.0955 31.7142 84.9128 31.2411C84.4792 31.9704 84.085 32.7194 83.6908 33.4684C83.1783 34.4539 82.7447 35.5183 82.4293 36.6615Z" fill="#D3280E"/>
<path d="M110.694 113.513C110.694 116.942 113.02 119.82 116.154 120.668C116.765 120.845 117.415 120.924 118.086 120.924C122.185 120.924 125.497 117.612 125.497 113.513C125.497 112.034 125.063 110.674 124.314 109.511L113.986 107.343C112.015 108.664 110.694 110.931 110.694 113.513Z" fill="#E4C5A9"/>
<path d="M73.5004 32.8377C73.9734 34.6707 77.6199 35.9125 80.6553 36.4053L82.4489 36.6418C82.7643 35.6169 83.1979 34.3357 83.7104 33.429C82.4686 33.4487 81.562 33.2713 79.9457 32.9954C78.0929 32.7983 75.2152 32.5617 73.5004 32.8377Z" fill="#A51E0D"/>
<path d="M75.5897 166.376H95.2805C95.4973 165.312 95.9507 164.307 96.6603 163.538C96.6603 162.533 96.68 161.547 96.8377 160.581L85.4253 159.399C85.3661 159.734 85.307 160.049 85.2282 160.207C84.7354 161.212 82.6855 160.798 81.8577 160.798C80.5371 160.798 79.315 161.035 78.0732 161.606C76.4373 162.552 75.6489 164.504 75.5897 166.376Z" fill="#1E1F52"/>
<path d="M117.001 167.539C116.923 165.686 116.252 163.4 116.469 161.547L104.939 160.897C104.899 161.114 104.86 161.291 104.801 161.389C104.308 162.395 102.258 161.961 101.43 161.961C100.09 161.961 98.8875 162.198 97.6458 162.789C97.291 163.006 96.9559 163.242 96.6799 163.558C95.9507 164.307 95.4973 165.332 95.3002 166.396C95.2214 166.79 95.1819 167.165 95.1622 167.559H117.001V167.539Z" fill="#1E1F52"/>
<path d="M101.036 73.0865C100.937 74.2494 101.548 75.235 102.416 75.3138C103.283 75.3926 104.052 74.5057 104.15 73.3625C104.249 72.1995 103.638 71.214 102.77 71.1352C101.923 71.0563 101.154 71.9236 101.036 73.0865Z" fill="white"/>
<path d="M84.0653 74.2494C84.3215 75.3729 85.2085 76.1416 86.0561 75.9642C86.9036 75.7868 87.3767 74.7027 87.1204 73.5792C86.8642 72.436 85.9772 71.687 85.1494 71.8644C84.2821 72.0418 83.8091 73.1259 84.0653 74.2494Z" fill="white"/>
<path d="M84.9127 31.2411C86.0756 31.7142 87.3371 31.9507 88.4015 31.8719C89.9783 31.6945 92.8955 31.1229 93.8021 29.4475C95.1622 26.9048 92.0085 26.0375 89.525 25.939C87.6328 27.2399 86.1348 29.1715 84.9127 31.2411Z" fill="#E5E5E5"/>
<path opacity="0.83" d="M105.826 118.421C107.245 116.942 108.94 115.72 110.812 114.873C110.714 114.439 110.674 113.966 110.674 113.513C110.674 110.931 111.975 108.664 113.986 107.343C114.025 106.575 114.025 105.767 114.006 104.899C114.006 104.663 113.986 104.406 113.986 104.15C113.946 103.52 113.927 102.889 113.887 102.238C112.705 102.396 111.542 102.652 110.399 102.948L109.827 101.351L108.033 102.022C107.698 103.48 107.718 105.077 107.777 106.614C107.777 107.186 108.112 107.935 108.033 108.526C107.954 109.452 107.205 110.28 106.792 111.108C105.688 113.257 104.998 116.095 105.826 118.421Z" fill="#666666"/>
<path opacity="0.35" d="M101.292 129.656C101.292 138.387 108.191 145.503 116.824 145.858C116.765 144.182 116.726 142.467 116.686 140.753C116.174 140.851 115.661 140.91 115.109 140.91C110.497 140.91 106.772 137.185 106.772 132.592C106.772 128 110.497 124.275 115.109 124.275C115.504 124.275 115.878 124.314 116.252 124.353C116.213 122.974 116.174 121.752 116.154 120.668C113.434 119.938 111.325 117.691 110.812 114.873C105.195 117.415 101.292 123.092 101.292 129.656Z" fill="#666666"/>
<path opacity="0.38" d="M79.5712 104.761C79.5712 108.881 79.6895 113.217 80.0049 117.534C80.4385 117.613 80.8721 117.672 81.3255 117.672C81.6408 117.672 81.9562 117.652 82.2716 117.593C82.1139 113.059 81.9759 108.625 81.8577 104.525C81.5423 94.0782 81.3452 85.8195 81.3255 83.5922V74.7422C81.3255 74.7422 79.5121 88.3424 79.5712 104.761Z" fill="#666666"/>
<g opacity="0.43">
<path opacity="0.43" d="M107.6 102.199L109.847 101.351L110.418 102.948C111.561 102.652 112.724 102.396 113.907 102.238C113.631 98.5327 113.059 94.3738 112.429 90.3529C112.291 89.4659 112.133 88.5789 111.995 87.7117C111.837 86.8444 111.699 85.9772 111.561 85.1493C111.502 84.7354 111.423 84.3215 111.345 83.9076C111.207 83.0994 111.069 82.311 110.95 81.5226C110.418 79.2756 109.63 72.7908 109.038 71.3717C109.038 72.5937 108.94 76.1219 108.802 80.4582C108.526 87.8497 108.092 97.5669 107.6 102.199Z" fill="#666666"/>
</g>
<path opacity="0.36" d="M85.78 55.012C85.9574 55.9975 86.529 56.8648 87.3963 57.5941C89.5447 59.3877 93.546 60.255 97.902 59.6242C100.701 59.2103 103.165 58.2642 104.998 57.0027C107.028 55.5836 108.27 53.8294 108.211 52.0357C108.211 51.9766 108.191 51.9174 108.191 51.8583C107.383 51.5824 106.594 51.3852 105.826 51.2079C103.322 53.3957 100.07 54.6966 96.5025 54.6966C93.881 54.6966 91.4172 53.987 89.3082 52.7453C88.7169 53.0212 88.165 53.3169 87.6328 53.6717C86.9429 54.0856 86.3319 54.5389 85.78 55.012Z" fill="#666666"/>
<path d="M138.368 150.253L96.6406 191.98C96.4238 192 96.2069 192 95.9901 192C46.2999 192 5.42036 154.235 0.473022 105.845L73.4807 32.8377C73.9538 34.6905 77.6002 35.9125 80.6356 36.425L82.4096 36.6615L82.7644 36.7206C82.4293 37.923 82.2519 39.1845 82.2519 40.4854C82.2519 40.8007 82.2716 41.1358 82.2913 41.4512C82.2913 41.668 82.311 41.9045 82.3504 42.1213C82.3702 42.3579 82.3899 42.5747 82.4293 42.7915C82.5278 43.3828 82.6658 43.9544 82.8235 44.526C82.9615 44.9991 83.1389 45.4721 83.336 45.9254C83.3951 46.1226 83.4937 46.3197 83.5922 46.4971C83.6119 46.5365 83.6316 46.5956 83.6513 46.635C84.8734 49.1974 86.8247 51.3261 89.2688 52.7453C88.6775 53.0212 88.1256 53.3169 87.5934 53.6717C87.2387 53.8885 86.9036 54.125 86.5685 54.3615C86.2925 54.5586 86.0166 54.7755 85.7604 55.012V55.0317C85.1099 55.5639 84.5186 56.1749 83.9864 56.8254V56.8451C78.1915 63.8029 78.3492 75.1758 77.9747 79.5516C77.3243 87.1401 77.4228 96.9559 77.9747 105.431C76.0234 106.575 74.7422 108.684 74.7422 111.108C74.7422 111.739 74.8408 112.37 75.0182 112.941L71.7462 114.636L71.6674 114.498L71.6476 114.518C70.8198 114.952 69.9131 114.971 69.0656 114.676L69.0459 114.656C68.8685 114.617 68.6911 114.538 68.5334 114.439C68.3757 114.36 68.218 114.281 68.08 114.163C67.9815 114.104 67.9026 114.025 67.8238 113.946C67.6464 113.828 67.5084 113.67 67.3902 113.493C67.2916 113.375 67.2128 113.276 67.1339 113.158L67.0748 113.04L67.0551 113.059L67.0354 113.04L66.9171 113.099L62.0881 103.795L62.4428 102.672V102.633C62.4626 102.593 62.4428 102.554 62.4231 102.514L60.6492 99.1044C60.6098 99.0058 60.4915 98.9861 60.4127 99.0255L57.0027 100.799C56.9042 100.839 56.8648 100.957 56.9239 101.036L58.6979 104.446C58.7176 104.485 58.7373 104.525 58.7767 104.544H58.8161L59.9199 104.899L64.7687 114.222L64.6307 114.301H64.611L64.6701 114.419C65.3403 116.154 64.7293 118.086 63.1721 118.894V118.913H63.1524L63.2313 119.071L53.9082 123.9L52.5285 123.329L52.489 123.309C52.4496 123.309 52.4102 123.309 52.3708 123.329L48.409 125.378C48.3104 125.438 48.271 125.556 48.3301 125.654L50.38 129.616C50.4194 129.715 50.5574 129.754 50.656 129.695L54.5981 127.645C54.6375 127.625 54.6769 127.586 54.6966 127.547V127.507L55.0317 126.049L64.335 121.22L64.4139 121.358H64.4336L64.4533 121.338C64.5716 121.259 64.6898 121.22 64.8081 121.18C65.0446 121.101 65.2812 121.042 65.5177 121.003C65.6557 120.983 65.7739 120.983 65.9119 120.983C66.0893 120.983 66.2667 121.003 66.4244 121.022C66.6215 121.062 66.8186 121.101 66.996 121.16C67.7844 121.417 68.494 121.949 68.9867 122.698L69.0459 122.816L69.1838 122.737L74.0326 132.06L73.8158 133.026L73.7961 133.046C73.7961 133.085 73.7961 133.125 73.8158 133.164L75.4124 136.259C75.4518 136.338 75.5503 136.357 75.6292 136.318L78.7237 134.721C78.8026 134.682 78.842 134.583 78.8026 134.504L77.1863 131.41C77.1666 131.37 77.1469 131.351 77.1075 131.331H77.0877L76.1811 130.957L71.352 121.633L71.49 121.555L71.4111 121.436C70.741 119.702 71.3717 117.751 72.9091 116.962L72.9485 116.942L72.8697 116.785L76.1219 115.109C77.0483 116.331 78.4281 117.218 79.9852 117.534C80.3991 117.613 80.8525 117.672 81.3058 117.672C81.6212 117.672 81.9365 117.652 82.2519 117.593C82.7841 133.243 83.4937 150.233 84.2229 159.281L85.4253 159.399C85.3662 159.734 85.307 160.049 85.2282 160.207C84.7157 161.212 82.6658 160.798 81.838 160.798C80.5174 160.798 79.315 161.015 78.0536 161.606C76.4373 162.552 75.6292 164.504 75.57 166.376H95.2608C95.182 166.751 95.1426 167.145 95.1426 167.539H116.982C116.923 165.686 116.233 163.4 116.45 161.547L117.514 161.606C117.435 160.897 117.376 159.97 117.317 158.867L120.234 158.847V157.172C121.732 157.034 123.171 156.758 124.61 156.363L125.181 157.96L130.07 156.147L129.478 154.589C130.819 153.939 132.1 153.21 133.322 152.342L134.386 153.604L138.368 150.253Z" fill="#D1D1D1"/>
</g>
<defs>
<clipPath id="clip0">
<rect width="192" height="192" fill="white"/>
</clipPath>
</defs>
</svg>
