<svg width="188" height="188" viewBox="0 0 188 188" fill="none" xmlns="http://www.w3.org/2000/svg">
<g clip-path="url(#clip0)">
<path d="M185.446 115.858C197.522 65.3603 166.376 14.6339 115.879 2.55733C65.3812 -9.51928 14.6549 21.627 2.57831 72.1245C-9.4983 122.622 21.648 173.348 72.1454 185.425C122.643 197.501 173.369 166.355 185.446 115.858Z" fill="#FFCC00"/>
<path d="M98.5258 69.0742H40.5104V153.453H98.5258V69.0742Z" fill="#F1582B"/>
<path d="M130.062 56.3363V153.434H98.545V69.0742L122.728 59.2892L130.062 56.3363Z" fill="#B13D1F"/>
<path d="M154.631 75.3853C154.631 86.502 151.639 96.5765 146.756 103.968C146.254 104.779 145.714 105.551 145.116 106.265C144.112 107.577 143.031 108.755 141.912 109.855C140.928 110.781 139.924 111.63 138.882 112.364C138.168 112.885 137.454 113.329 136.701 113.734C136.141 114.062 135.582 114.352 135.003 114.622C133.42 115.336 131.76 115.857 130.062 116.147C129.039 116.32 127.977 116.417 126.916 116.417C126.684 116.417 126.453 116.417 126.221 116.378C127.784 115.818 128.865 114.332 128.865 112.595V105.049C129.251 105.011 129.676 104.953 130.062 104.837C131.104 104.586 132.185 104.103 133.208 103.428C133.574 103.196 133.903 102.945 134.25 102.675C134.424 102.54 134.578 102.405 134.752 102.27C135.003 102.038 135.254 101.826 135.524 101.575C135.89 101.228 136.276 100.822 136.643 100.398C136.836 100.186 137.01 99.9733 137.184 99.7417C137.377 99.5294 137.531 99.3171 137.705 99.0662C137.898 98.8153 138.071 98.5837 138.245 98.3135C138.438 98.0433 138.612 97.7924 138.785 97.5029C138.959 97.2327 139.113 96.9625 139.287 96.673C139.48 96.3835 139.654 96.094 139.789 95.7852C140.908 93.7587 141.893 91.4427 142.684 88.8952C142.819 88.4706 142.935 88.0074 143.051 87.5828C143.166 87.1968 143.263 86.7722 143.34 86.3669C143.495 85.7686 143.63 85.1703 143.745 84.572C143.861 84.0509 143.958 83.5298 144.016 82.9894C144.093 82.4683 144.17 81.9279 144.247 81.3682C144.324 80.6927 144.402 79.9979 144.46 79.3224C144.517 78.6083 144.556 77.9135 144.595 77.1994C144.614 76.6012 144.633 75.9836 144.633 75.366C144.633 58.826 136.431 46.3776 128.846 45.7214V38.4067C128.846 36.4188 127.398 34.759 125.507 34.4309C125.951 34.3923 126.433 34.373 126.897 34.373C142.201 34.3923 154.631 52.7272 154.631 75.3853Z" fill="#666666"/>
<path d="M127.611 45.7407C127.476 45.7407 127.36 45.7793 127.244 45.7793C127.186 45.7793 127.09 45.7986 127.032 45.8179C127.012 45.7793 126.993 45.7793 126.974 45.7407H127.611Z" fill="#666666"/>
<path d="M127.611 105.03H126.974C127.012 104.991 127.012 104.972 127.032 104.953C127.09 104.972 127.186 104.991 127.244 104.991C127.379 104.991 127.476 105.03 127.611 105.03Z" fill="#666666"/>
<path d="M128.865 38.4451V45.7598C128.653 45.7405 128.46 45.7212 128.248 45.7212C128.132 45.7212 128.035 45.7212 127.939 45.7405C127.823 45.7212 127.707 45.7405 127.611 45.7598H127.244V38.4451C127.244 37.1134 126.163 36.0133 124.812 36.0133H108.369C107.037 36.0133 105.937 37.1134 105.937 38.4451V45.7598H104.316V38.4451C104.316 36.3028 105.976 34.5466 108.079 34.4115H108.137C108.214 34.3922 108.292 34.3922 108.369 34.3922H124.812C125.063 34.3922 125.275 34.4115 125.507 34.4501C127.418 34.7781 128.865 36.4379 128.865 38.4451Z" fill="#999999"/>
<path d="M128.865 105.03V112.576C128.865 114.313 127.765 115.799 126.202 116.359C125.758 116.533 125.295 116.61 124.812 116.61H108.369C107.886 116.61 107.423 116.533 106.998 116.359H106.979C105.435 115.799 104.335 114.313 104.335 112.576V105.03H105.956V112.576C105.956 113.908 107.056 115.008 108.388 115.008H124.832C126.183 115.008 127.263 113.908 127.263 112.576V105.03H127.63C127.727 105.049 127.842 105.068 127.958 105.049C128.055 105.068 128.151 105.068 128.267 105.068C128.46 105.068 128.653 105.049 128.865 105.03Z" fill="#999999"/>
<path d="M144.653 75.3853C144.653 91.9253 136.45 104.374 128.865 105.03H127.611C127.476 105.03 127.36 104.991 127.244 104.972C127.186 104.972 127.09 104.953 127.032 104.933C127.012 104.972 126.993 104.991 126.974 105.011H127.244V112.557C127.244 113.889 126.163 114.989 124.812 114.989H108.369C107.037 114.989 105.937 113.889 105.937 112.557V105.011H108.388C108.639 105.03 108.89 105.049 109.141 105.049C109.353 105.049 109.546 105.03 109.758 105.011C112.827 104.76 116.012 102.56 118.694 98.9504C121.107 95.6888 123.133 91.3077 124.33 86.1546C124.465 85.6142 124.581 85.0931 124.677 84.5334C125.237 81.6771 125.546 78.5891 125.546 75.366C125.546 72.2201 125.256 69.2286 124.716 66.4302C124.6 65.8705 124.503 65.3494 124.368 64.809C123.153 59.5594 121.126 55.0818 118.675 51.7816C115.992 48.1532 112.827 45.9723 109.739 45.7214C109.527 45.7021 109.334 45.6828 109.121 45.6828C108.871 45.6828 108.62 45.7021 108.369 45.7214H105.956V38.4068C105.956 37.0751 107.056 35.975 108.388 35.975H124.832C126.183 35.975 127.263 37.0751 127.263 38.4068V45.7214H126.993C127.032 45.76 127.032 45.76 127.051 45.7986C127.109 45.7793 127.205 45.76 127.263 45.76C127.398 45.7407 127.514 45.7214 127.63 45.7214H128.885C136.45 46.3969 144.653 58.8453 144.653 75.3853Z" fill="#3D3D3D"/>
<path d="M125.005 76.6784C125.005 78.9171 123.596 80.7313 121.879 80.7313C120.161 80.7313 118.771 78.9171 118.771 76.6784C118.771 74.4203 120.161 72.6061 121.879 72.6061C123.596 72.6254 125.005 74.4396 125.005 76.6784Z" fill="#B3B3B3"/>
<path d="M130.042 56.3363L98.5258 69.0742H40.5104L72.0271 56.3363H130.042Z" fill="#B33E20"/>
<path d="M121.879 80.7313H111.302C109.565 80.7313 108.176 78.9171 108.176 76.6784C108.176 74.4203 109.585 72.6061 111.302 72.6061H121.879C120.161 72.6061 118.771 74.4203 118.771 76.6784C118.771 78.9171 120.161 80.7313 121.879 80.7313Z" fill="#666666"/>
<path d="M95.4378 33.5624H56.5293V58.633H95.4378V33.5624Z" fill="#E34F26"/>
<path d="M92.0603 36.8434H59.8875V55.352H92.0603V36.8434Z" fill="#81C6D6"/>
<path d="M77.2188 39.2752H62.2614V42.9036H77.2188V39.2752Z" fill="#535977"/>
<path d="M75.559 44.6599H62.2614V46.4161H75.559V44.6599Z" fill="#535977"/>
<path d="M85.7107 44.6599H77.5276V46.4161H85.7107V44.6599Z" fill="#535977"/>
<path d="M80.3646 47.883H62.2614V49.6393H80.3646V47.883Z" fill="#535977"/>
<path d="M77.2188 51.1639H62.2614V52.9202H77.2188V51.1639Z" fill="#535977"/>
<path opacity="0.41" d="M68.0706 36.8434L65.4651 55.352H59.8875V36.8434H68.0706Z" fill="white"/>
<path d="M83.3947 58.6329H68.5531V62.7824H83.3947V58.6329Z" fill="#832E17"/>
<path d="M119.64 50.2954C117.266 50.2954 115.027 50.9902 112.943 52.2447C110.897 53.4799 109.025 55.2748 107.442 57.5136C104.084 62.2613 101.981 68.9584 101.981 76.3695C101.981 83.7807 104.084 90.4777 107.442 95.2255C109.025 97.4643 110.897 99.2592 112.943 100.494C115.008 101.749 117.266 102.444 119.64 102.444C129.367 102.444 137.261 90.7672 137.261 76.3888C137.261 61.9525 129.367 50.2954 119.64 50.2954ZM120.489 95.2255C119.891 95.2255 119.293 95.1097 118.675 94.8781C116.938 94.2219 115.24 92.6779 113.792 90.4584C111.611 87.0616 110.048 82.1016 110.048 76.3502C110.048 70.6182 111.592 65.6388 113.792 62.242C115.24 60.0225 116.938 58.4786 118.675 57.8224C119.273 57.5908 119.891 57.475 120.489 57.475C125.411 57.475 130.911 65.5423 130.911 76.3309C130.911 87.1581 125.411 95.2255 120.489 95.2255Z" fill="#666666"/>
<path d="M130.911 76.3503C130.911 87.1582 125.411 95.2062 120.489 95.2062C119.891 95.2062 119.292 95.0904 118.675 94.8588C116.938 94.2026 115.239 92.6586 113.792 90.4392C115.973 87.0424 117.536 82.0823 117.536 76.331C117.536 70.5989 115.973 65.6195 113.792 62.2228C115.239 60.0033 116.938 58.4593 118.675 57.8031C119.273 57.5715 119.891 57.4557 120.489 57.4557C125.411 57.4943 130.911 65.5616 130.911 76.3503Z" fill="#333333"/>
<path d="M118.694 102.366C119.003 102.405 119.312 102.405 119.64 102.405H106.265C104.084 102.405 101.961 101.807 100.031 100.726C99.2785 100.301 98.5451 99.8189 97.831 99.2399C96.4993 98.1591 95.2642 96.8274 94.1641 95.2834C93.7974 94.7816 93.4693 94.2605 93.1219 93.7201C92.1569 92.1375 91.3463 90.3812 90.6708 88.4899C90.4971 87.9881 90.3234 87.4863 90.169 86.9652C89.7251 85.4791 89.3584 83.9351 89.1075 82.3139C89.0303 81.8314 88.9531 81.3296 88.8952 80.8278C88.7215 79.361 88.625 77.8749 88.625 76.3309C88.625 76.0993 88.625 75.8484 88.6443 75.6168C88.6443 75.115 88.6636 74.6133 88.7022 74.1308C88.7601 72.7798 88.9145 71.4481 89.1268 70.1743C89.204 69.6725 89.2812 69.19 89.397 68.7075C89.7058 67.2021 90.0918 65.7739 90.5936 64.4036C90.748 63.9211 90.9217 63.4579 91.1147 63.014C91.7902 61.3542 92.5815 59.8103 93.4693 58.4207C93.7395 57.9961 94.0097 57.5908 94.3185 57.2048C95.7853 55.1976 97.5029 53.5378 99.375 52.3605C99.8189 52.0903 100.282 51.8201 100.745 51.6078C102.347 50.8165 104.065 50.3533 105.84 50.2954C105.976 50.2761 106.13 50.2761 106.284 50.2761H119.659C119.35 50.2761 119.042 50.2954 118.713 50.3147C118.347 50.334 117.98 50.3919 117.613 50.4498C117.285 50.5077 116.957 50.5656 116.629 50.6621C116.378 50.72 116.127 50.7779 115.896 50.8744C114.892 51.1832 113.908 51.6271 112.962 52.2061C112.827 52.2833 112.692 52.3798 112.538 52.4763C111.939 52.8623 111.341 53.3062 110.781 53.7887C109.585 54.8116 108.485 56.0468 107.462 57.4557V57.475C107.114 57.9575 106.786 58.4593 106.477 58.9804C105.783 60.1191 105.165 61.3542 104.625 62.6473C104.412 63.1491 104.219 63.6509 104.026 64.172C103.525 65.5423 103.119 66.9705 102.81 68.4952C102.695 69.0163 102.598 69.5374 102.521 70.0778C102.289 71.4095 102.135 72.7798 102.077 74.1887C102.038 74.6904 102.019 75.1922 102.019 75.7133C102 75.9256 102 76.1379 102 76.3309C102 77.6626 102.077 78.9943 102.212 80.2681C102.251 80.7699 102.309 81.2717 102.386 81.7542C102.598 83.2017 102.888 84.6299 103.254 85.9809C103.389 86.4827 103.525 86.9652 103.679 87.4477C104.2 89.0689 104.818 90.5935 105.551 92.0024C105.783 92.4463 106.014 92.8902 106.265 93.3148C106.651 93.971 107.056 94.6079 107.462 95.2062C107.886 95.8045 108.33 96.3642 108.793 96.9046C109.141 97.2906 109.469 97.6573 109.836 98.0047C110.82 98.989 111.862 99.7996 112.962 100.475C113.908 101.054 114.892 101.498 115.896 101.807C116.147 101.903 116.398 101.98 116.629 102.019C116.957 102.116 117.285 102.193 117.613 102.231C117.961 102.309 118.308 102.366 118.694 102.366Z" fill="#333333"/>
<path d="M103.081 54.6186C102.81 54.9081 102.56 55.1976 102.309 55.5064C102.309 55.4871 102.289 55.4678 102.289 55.4485C102.56 55.159 102.81 54.8888 103.081 54.6186Z" fill="white"/>
<path d="M113.155 102.424C111.264 102.251 109.45 101.633 107.751 100.629V100.61C108.079 99.5873 108.813 98.6416 109.816 98.0047C109.469 97.6573 109.122 97.2906 108.774 96.9046C107.693 97.638 106.883 98.6416 106.439 99.761C105.435 99.0276 104.509 98.1591 103.621 97.1748C103.814 95.4957 105.011 94.164 106.246 93.3341C105.995 92.9095 105.744 92.4656 105.532 92.0217C104.219 92.8516 103.003 94.1061 102.405 95.6694C101.421 94.357 100.552 92.8709 99.7997 91.2497C100.244 90.3812 101.672 88.4898 103.679 87.4476C103.525 86.9652 103.389 86.4827 103.254 85.9809C101.382 86.8493 99.9348 88.3547 99.0856 89.532C98.5645 88.2582 98.1399 86.9266 97.7925 85.5177C98.4873 83.6263 100.321 82.3911 102.405 81.7542C102.328 81.2524 102.27 80.7699 102.231 80.2681C100.301 80.8278 98.4873 81.8314 97.31 83.3175C97.0591 81.9858 96.8661 80.5962 96.7696 79.1873C97.6574 77.5468 99.6839 76.2537 102.038 75.7326C102.038 75.2115 102.058 74.7097 102.096 74.2079C99.9734 74.6132 98.0241 75.5589 96.6924 76.8327C96.6731 76.659 96.6731 76.5046 96.6731 76.3502C96.6731 75.5396 96.6924 74.7676 96.7503 73.9763V73.957C97.6188 72.4131 99.8962 70.7919 102.54 70.0971C102.617 69.5567 102.733 69.0356 102.849 68.5145C100.533 68.997 98.4487 70.0971 97.0012 71.3709C97.1749 70.0199 97.4258 68.6689 97.7539 67.3951C99.1628 65.7353 101.479 64.558 104.084 64.1913C104.277 63.6702 104.47 63.1491 104.683 62.6666C102.405 62.8403 100.244 63.5737 98.5259 64.7317C98.9119 63.593 99.3558 62.4929 99.8383 61.47C101.421 60.0804 103.853 59.1926 106.516 59.0189C106.825 58.4979 107.153 57.9961 107.5 57.5136V57.4943C105.435 57.5136 103.196 57.9189 101.286 58.7873C101.961 57.668 102.695 56.6644 103.505 55.738C103.505 55.738 103.505 55.738 103.525 55.738C105.319 54.4642 108.195 53.7694 110.839 53.8273C111.399 53.3255 111.997 52.8816 112.595 52.5149C110.781 52.2447 108.697 52.3219 106.767 52.7658C108.736 51.3569 110.916 50.5077 113.232 50.2954H107.693C105.686 51.1639 104.142 52.1482 102.463 53.8852C102.174 52.9974 101.575 52.3219 100.784 51.6271C100.321 51.8394 99.8769 52.0903 99.4137 52.3798C100.533 53.2676 101.016 54.2519 101.151 55.2941C100.031 56.6451 99.1049 57.861 98.2557 59.5786C97.3679 58.3242 96.4029 57.2048 94.9554 56.4328C94.6659 56.8188 94.2413 57.3399 93.9711 57.7645C95.5923 58.7295 96.6731 59.9646 97.3872 61.2963C96.8468 62.5508 96.0748 64.5194 95.6888 65.909C94.6466 64.5194 93.4693 63.1684 91.4042 62.4736C91.2112 62.9175 90.9603 63.4772 90.8059 63.9597C92.6587 64.4808 94.1448 66.1985 95.1098 67.6074C95.1484 67.646 95.1677 67.6846 95.2256 67.7232C94.9361 69.0356 94.6852 70.3866 94.5308 71.7762C93.3342 70.541 91.5393 69.4023 89.4743 68.7268C89.3778 69.2093 89.2813 69.7111 89.2041 70.1936C91.5779 71.0235 93.5272 72.5096 94.2606 73.957C94.2799 73.9956 94.2992 74.0149 94.3185 74.0535C94.2799 74.8062 94.2606 75.5782 94.2606 76.3695C94.2606 76.466 94.2606 76.5818 94.2799 76.6976C92.8903 75.4431 90.9217 74.536 88.7795 74.1693C88.7409 74.6518 88.7216 75.1536 88.7216 75.6554C91.2305 76.1186 93.4307 77.4503 94.3764 79.1873C94.3957 79.1873 94.3957 79.1873 94.3764 79.2066C94.4536 80.3839 94.5887 81.5226 94.7817 82.6613C93.1412 81.5226 91.0375 80.9629 88.9725 80.8664C89.0304 81.3682 89.0883 81.87 89.1848 82.3525C91.6165 82.5262 94.0869 83.4333 95.3221 85.3247C95.6309 86.6178 96.0169 87.8529 96.4415 89.0302C94.7431 88.0266 92.5043 87.1582 90.2462 87.0038C90.4006 87.5248 90.5743 88.0266 90.748 88.5284C93.7009 88.9337 96.538 90.7093 97.5416 91.6743C98.082 92.8516 98.6996 93.9517 99.3558 94.9746C97.2907 94.2412 95.0905 93.8166 93.1991 93.7587C93.5465 94.2991 93.8746 94.8202 94.2413 95.322C96.5187 95.5729 99.1628 96.3256 101.209 97.4643C101.788 98.1591 102.424 98.8153 103.061 99.4136C101.421 99.2399 99.5681 99.2013 97.889 99.2785C98.6031 99.8382 99.3365 100.34 100.089 100.765C102.231 100.803 104.374 100.996 105.609 101.363C105.763 101.459 105.918 101.556 106.072 101.633C106.477 101.865 106.883 102.077 107.288 102.251C107.423 102.309 107.539 102.366 107.674 102.424H111.785L113.58 102.463C113.387 102.444 113.271 102.424 113.155 102.424ZM101.016 95.6887C100.205 94.6272 99.4909 93.4692 98.8733 92.2147C98.8154 92.1182 98.7575 92.0217 98.6996 91.9252C98.5452 91.5971 98.3715 91.2883 98.2364 90.9409C98.1013 90.6321 97.9469 90.3233 97.8311 89.9952C97.3486 88.8565 96.9433 87.6792 96.5959 86.4441C96.5766 86.3669 96.5573 86.2897 96.538 86.2318V86.2125C96.4415 85.8651 96.345 85.537 96.2871 85.1703C96.152 84.6878 96.0555 84.2246 95.959 83.7228C95.959 83.7035 95.959 83.7035 95.959 83.7035C95.6888 82.4104 95.4958 81.098 95.38 79.7277C95.38 79.6505 95.38 79.5926 95.38 79.5154C95.3414 79.2259 95.3221 78.9364 95.3221 78.6276C95.3221 78.6276 95.3221 78.6276 95.3221 78.6083C95.2835 78.3574 95.2835 78.0872 95.2835 77.8363C95.2835 77.8363 95.2835 77.8363 95.2835 77.817C95.2449 77.3152 95.2449 76.8327 95.2449 76.3309C95.2449 75.6168 95.2642 74.922 95.3221 74.2272C95.3028 74.1886 95.3028 74.1886 95.3221 74.15C95.3414 73.8605 95.3414 73.571 95.38 73.2622L95.4186 72.9148C95.5537 71.2358 95.8239 69.5953 96.1906 68.032C96.2099 67.9355 96.2292 67.8197 96.2678 67.7232C96.3257 67.453 96.3836 67.1635 96.4801 66.8933C96.5187 66.7196 96.5573 66.5459 96.6152 66.3722C96.9626 65.0984 97.3872 63.8825 97.8697 62.7052C97.9469 62.5122 98.0241 62.3385 98.1013 62.1648C98.2364 61.8753 98.3522 61.5858 98.5066 61.2963C98.6996 60.8717 98.9119 60.4664 99.1242 60.0804C99.819 58.768 100.61 57.5522 101.479 56.4714C101.479 56.4521 101.517 56.4328 101.537 56.4135C101.807 56.0661 102.077 55.738 102.386 55.4292C102.637 55.1397 102.907 54.8695 103.177 54.5993C102.907 54.8888 102.656 55.1783 102.405 55.4871C102.135 55.8152 101.884 56.1433 101.633 56.4907C100.88 57.4943 100.205 58.5943 99.5681 59.7523V59.7716C99.24 60.3699 98.9505 60.9875 98.661 61.6244C98.5645 61.856 98.4487 62.0876 98.3715 62.3385C98.3136 62.4736 98.2557 62.6087 98.1978 62.7438C97.7925 63.7474 97.4451 64.7703 97.1363 65.8704V65.8897C96.9047 66.6424 96.7117 67.4337 96.538 68.2443C96.2292 69.6532 95.9976 71.12 95.8625 72.6061V72.6254C95.8046 73.2236 95.7467 73.8412 95.7081 74.4781C95.6695 75.0957 95.6695 75.7326 95.6695 76.3695C95.6695 76.9292 95.6888 77.5082 95.7081 78.0486C95.7081 78.203 95.7274 78.3574 95.7467 78.5118C95.7467 78.8399 95.7853 79.168 95.8046 79.4768C95.8239 79.5733 95.8239 79.6698 95.8239 79.7663C95.959 81.3296 96.1906 82.8543 96.4994 84.3018C96.5187 84.3983 96.538 84.4948 96.5573 84.572C96.6731 85.1317 96.8082 85.6914 96.9626 86.2318L96.9819 86.309C97.3679 87.7371 97.8311 89.0688 98.3522 90.3619C98.3908 90.4391 98.4101 90.5163 98.4487 90.5742V90.5935C98.6417 91.0567 98.8347 91.5006 99.047 91.9252C99.047 91.9638 99.0856 92.0024 99.1049 92.0217C99.7611 93.3727 100.514 94.6272 101.324 95.7852C101.189 95.7659 101.093 95.7273 101.016 95.6887Z" fill="#4D4D4D"/>
<path d="M130.776 73.2622C130.737 72.606 130.641 71.9499 130.544 71.313C130.467 70.7919 130.39 70.2901 130.274 69.8076C130.158 69.1707 130.004 68.5724 129.83 67.9741C128.344 62.6087 125.488 58.6715 122.091 57.7258C121.724 57.6294 121.358 57.5715 120.991 57.5522C120.836 57.5136 120.701 57.5135 120.547 57.5135C120.393 57.5328 120.238 57.5136 120.084 57.5522C119.717 57.5522 119.35 57.61 119.003 57.7065C115.606 58.5943 112.711 62.4736 111.225 67.839C111.032 68.4373 110.897 69.0356 110.762 69.6725C110.665 70.155 110.569 70.6761 110.492 71.1779C110.395 71.8148 110.318 72.4516 110.26 73.1271C110.144 74.1693 110.106 75.2115 110.086 76.2923C110.067 81.5419 111.264 86.2896 113.174 89.725L113.213 89.7829L113.966 91.0374L114.004 91.0567C114.236 91.4041 114.467 91.7129 114.699 91.9831L115.664 93.0446C117.092 94.4342 118.733 95.2448 120.489 95.2448C122.226 95.2641 123.867 94.4921 125.295 93.1218C125.623 92.8323 125.951 92.4849 126.26 92.1182C126.511 91.8287 126.742 91.5006 126.974 91.1918L127.784 89.8601C129.714 86.4826 130.93 81.7156 130.93 76.4467C130.911 75.3466 130.872 74.2851 130.776 73.2622ZM129.444 70.3866C129.541 70.8305 129.618 71.3323 129.695 71.7569C129.695 71.7761 129.695 71.7762 129.695 71.7955L123.847 75.1922C123.789 74.6711 123.693 74.15 123.577 73.6868L129.425 70.2901C129.444 70.3094 129.444 70.348 129.444 70.3866ZM128.981 68.418L122.496 71.313L122.052 59.3084C125.025 60.1962 127.591 63.593 128.981 68.418ZM120.508 74.6518C121.029 74.6711 121.454 75.4238 121.454 76.3502C121.454 77.2959 121.029 78.0679 120.508 78.0486C119.987 78.0486 119.582 77.2766 119.582 76.3309C119.563 75.3852 119.968 74.6518 120.508 74.6518ZM120.064 59.0961C120.103 59.0768 120.142 59.0768 120.161 59.0768C120.257 59.0768 120.354 59.0768 120.45 59.0768H120.586C120.682 59.0768 120.779 59.0768 120.933 59.1154H120.952L120.933 70.2322C120.779 70.1936 120.624 70.1743 120.47 70.1743C120.315 70.1743 120.161 70.1936 120.026 70.2322L120.064 59.0961ZM118.984 59.2891L118.501 71.2937L112.036 68.3215C113.445 63.4965 116.031 60.1383 118.984 59.2891ZM111.302 71.5832C111.36 71.12 111.457 70.6568 111.553 70.1936C111.553 70.1936 111.573 70.155 111.573 70.1357L117.401 73.6289C117.266 74.0921 117.169 74.6132 117.112 75.1536L111.283 71.6604C111.302 71.6411 111.302 71.6218 111.302 71.5832ZM113.657 88.4126C111.901 85.151 110.916 80.8471 110.936 76.273C110.936 75.3852 110.994 74.4974 111.071 73.6096L111.129 73.6482L117.208 78.1644L113.657 88.4126ZM115.182 90.7093L115.162 90.6707C114.931 90.4198 114.718 90.111 114.545 89.8408L114.506 89.7829L118.134 80.8085C118.347 81.1945 118.578 81.5226 118.849 81.7735L115.182 90.7093ZM120.45 93.6622C118.926 93.6429 117.459 92.9867 116.147 91.7515L120.45 82.5841L124.754 91.8287C123.442 93.0446 121.975 93.6622 120.45 93.6622ZM126.414 89.918C126.202 90.2075 125.99 90.5163 125.739 90.8058C125.739 90.8058 125.719 90.8251 125.719 90.8444L122.11 81.8314C122.38 81.5805 122.631 81.2524 122.844 80.8664L126.433 89.8987C126.433 89.8987 126.433 89.8987 126.414 89.918ZM127.263 88.5477L123.789 78.203L129.946 73.7447C130.023 74.6325 130.062 75.5396 130.062 76.4467C130.042 81.0208 129.039 85.3247 127.263 88.5477Z" fill="white"/>
<path d="M126.434 89.8795C126.434 89.8988 126.434 89.8988 126.414 89.9181C126.202 90.2075 125.99 90.5163 125.739 90.8058C125.739 90.8058 125.739 90.8251 125.739 90.8444L125.391 89.9567L122.13 81.8121C122.265 81.677 122.4 81.5226 122.535 81.3489C122.651 81.1945 122.767 81.0208 122.863 80.8471L125.507 87.467L126.028 88.7794L126.434 89.8795Z" fill="#B3B3B3"/>
<path d="M117.42 73.6096C117.285 74.0921 117.189 74.5939 117.131 75.1343L115.047 73.8798C115.066 73.7833 115.085 73.7061 115.104 73.6096H117.42Z" fill="#CCCCCC"/>
<path d="M117.42 73.6096H115.104L111.341 71.3709C111.399 70.9849 111.476 70.5796 111.553 70.1936C111.553 70.1936 111.553 70.1357 111.573 70.1357L117.42 73.6096Z" fill="#B3B3B3"/>
<path d="M130.043 76.4082C130.043 81.0015 129.039 85.3054 127.263 88.5285L126.762 87.0424L126.26 85.5563C127.225 82.8543 127.727 79.6891 127.727 76.3889C127.727 76.0222 127.727 75.6748 127.707 75.3081L128.556 74.6905L129.927 73.6869C130.004 74.6133 130.062 75.5204 130.043 76.4082Z" fill="#CCCCCC"/>
<path d="M124.754 91.8094C124.195 92.3305 123.635 92.7358 123.037 93.0253C122.207 93.4499 121.338 93.6622 120.45 93.6622C120.064 93.6622 119.698 93.6043 119.35 93.5271C120.431 93.2955 121.473 92.7165 122.438 91.8287H124.754V91.8094Z" fill="#B3B3B3"/>
<path d="M124.754 91.8095H122.438L119.292 85.0545L120.257 82.9508L120.45 82.5648L123.963 90.1111L124.523 91.3077L124.754 91.8095Z" fill="#CCCCCC"/>
<path d="M118.81 81.7735L118.328 82.9701L115.182 90.7094L115.143 90.6515C114.95 90.4585 114.776 90.2269 114.641 89.9953C114.583 89.9374 114.545 89.8795 114.525 89.8216L114.487 89.7637L118.115 80.7892C118.308 81.1945 118.559 81.5226 118.81 81.7735Z" fill="#CCCCCC"/>
<path d="M117.208 78.1837H114.892L110.955 75.2501C110.974 74.7097 111.013 74.1693 111.051 73.6096L111.129 73.6482L117.208 78.1837Z" fill="#B3B3B3"/>
<path d="M117.208 78.1837L116.127 81.3296L113.676 88.4319C113.483 88.0845 113.31 87.7371 113.155 87.3897C112.885 86.7914 112.615 86.1353 112.402 85.4791L114.911 78.203H117.208V78.1837Z" fill="#CCCCCC"/>
<path d="M118.984 59.2892L118.636 68.0899L118.54 70.2129L118.501 71.2937V71.313L116.224 70.2708L116.61 60.5823C116.976 60.2735 117.362 60.0226 117.748 59.8296C118.038 59.6559 118.347 59.5208 118.636 59.4243C118.771 59.3471 118.868 59.3085 118.984 59.2892Z" fill="#B3B3B3"/>
<path d="M120.972 59.0962V59.8296L120.933 70.1936C120.798 70.155 120.643 70.1357 120.489 70.1357C120.373 70.1357 120.257 70.155 120.142 70.1743L120.045 67.4144L120.084 59.4243V59.0962C120.122 59.0769 120.161 59.0769 120.18 59.0769C120.277 59.0576 120.373 59.0576 120.45 59.0576H120.586C120.682 59.0576 120.779 59.0576 120.952 59.0962H120.972Z" fill="#B3B3B3"/>
<path d="M128.981 68.418H126.665C125.661 64.9247 124.04 62.1842 122.11 60.6016L122.052 59.3085C122.4 59.405 122.747 59.5401 123.075 59.7138C125.604 61.0069 127.746 64.1527 128.981 68.418Z" fill="#CCCCCC"/>
<path d="M128.981 68.418L127.765 68.9777L122.496 71.3322L122.458 70.3094L126.665 68.418H128.981Z" fill="#B3B3B3"/>
<path d="M129.695 71.7568C129.695 71.7761 129.695 71.7761 129.695 71.7954H127.379C127.379 71.7761 127.379 71.7761 127.379 71.7568C127.36 71.6603 127.341 71.5638 127.341 71.4866L128.17 71.0041L129.425 70.2708C129.444 70.3094 129.444 70.348 129.464 70.3866C129.56 70.8304 129.637 71.3322 129.695 71.7568Z" fill="#CCCCCC"/>
<path d="M129.695 71.7955L128.383 72.5482L123.866 75.173C123.809 74.7484 123.751 74.3431 123.654 73.9571L127.398 71.7955H129.695Z" fill="#B3B3B3"/>
<path d="M120.991 71.892C120.991 72.3938 120.759 72.799 120.489 72.799C120.219 72.799 119.987 72.3938 119.987 71.892C119.987 71.3902 120.219 70.9849 120.489 70.9849C120.759 70.9849 120.991 71.3902 120.991 71.892Z" fill="#67576A"/>
<path d="M118.694 74.9413C118.694 75.4431 118.463 75.8484 118.192 75.8484C117.903 75.8484 117.691 75.4431 117.691 74.9413C117.691 74.4395 117.903 74.0342 118.192 74.0342C118.482 74.0342 118.694 74.4395 118.694 74.9413Z" fill="#67576A"/>
<path d="M119.563 79.8242C119.563 80.326 119.331 80.7313 119.061 80.7313C118.791 80.7313 118.559 80.326 118.559 79.8242C118.559 79.3224 118.791 78.9171 119.061 78.9171C119.35 78.9364 119.563 79.3224 119.563 79.8242Z" fill="#67576A"/>
<path d="M122.419 79.8242C122.419 80.326 122.188 80.7313 121.917 80.7313C121.647 80.7313 121.416 80.326 121.416 79.8242C121.416 79.3224 121.647 78.9171 121.917 78.9171C122.188 78.9364 122.419 79.3224 122.419 79.8242Z" fill="#67576A"/>
<path d="M123.288 74.9413C123.288 75.4431 123.056 75.8484 122.786 75.8484C122.516 75.8484 122.284 75.4431 122.284 74.9413C122.284 74.4395 122.516 74.0342 122.786 74.0342C123.075 74.0342 123.288 74.4395 123.288 74.9413Z" fill="#67576A"/>
<path d="M120.489 73.8606C119.736 73.8606 119.099 74.98 119.099 76.3696C119.099 77.7399 119.717 78.8785 120.489 78.8785C121.261 78.8785 121.879 77.7592 121.879 76.3696C121.879 74.98 121.261 73.8606 120.489 73.8606ZM120.489 78.0487C119.968 78.0487 119.563 77.2767 119.563 76.331C119.563 75.3853 119.968 74.6519 120.508 74.6519C121.029 74.6712 121.454 75.4239 121.454 76.3503C121.435 77.296 121.01 78.068 120.489 78.0487Z" fill="#67576A"/>
<path d="M89.2039 141.7C89.2039 142.742 88.374 143.572 87.3318 143.572H51.7042C50.662 143.572 49.8322 142.722 49.8322 141.7V118.27C49.8322 117.227 50.662 116.397 51.7042 116.397H87.3318C88.374 116.397 89.2039 117.247 89.2039 118.27V141.7Z" fill="#E45027"/>
<path d="M54.4449 123.423C54.4449 124.368 53.6922 125.121 52.7465 125.121H47.9408C46.9951 125.121 46.2424 124.368 46.2424 123.423C46.2424 122.477 46.9951 121.724 47.9408 121.724H52.7465C53.6922 121.724 54.4449 122.477 54.4449 123.423Z" fill="#CA4624"/>
<path d="M54.4449 136.894C54.4449 137.84 53.6922 138.592 52.7465 138.592H47.9408C46.9951 138.592 46.2424 137.84 46.2424 136.894C46.2424 135.948 46.9951 135.196 47.9408 135.196H52.7465C53.6922 135.196 54.4449 135.948 54.4449 136.894Z" fill="#CA4624"/>
<path d="M89.2039 104.451C89.2039 105.493 88.374 106.323 87.3318 106.323H51.7042C50.662 106.323 49.8322 105.474 49.8322 104.451V81.0208C49.8322 79.9786 50.662 79.1487 51.7042 79.1487H87.3318C88.374 79.1487 89.2039 79.9979 89.2039 81.0208V104.451Z" fill="#E45027"/>
<path d="M54.4449 86.1739C54.4449 87.1196 53.6922 87.8722 52.7465 87.8722H47.9408C46.9951 87.8722 46.2424 87.1196 46.2424 86.1739C46.2424 85.2282 46.9951 84.4755 47.9408 84.4755H52.7465C53.6922 84.4755 54.4449 85.2282 54.4449 86.1739Z" fill="#CA4624"/>
<path d="M54.4449 99.6452C54.4449 100.591 53.6922 101.344 52.7465 101.344H47.9408C46.9951 101.344 46.2424 100.591 46.2424 99.6452C46.2424 98.6995 46.9951 97.9468 47.9408 97.9468H52.7465C53.6922 97.9468 54.4449 98.7188 54.4449 99.6452Z" fill="#CA4624"/>
<path d="M86.3089 83.1052H70.676V102.637H86.3089V83.1052Z" fill="#983519"/>
<path d="M84.7457 84.6685H72.2201V88.8372H84.7457V84.6685Z" fill="#1D9AA8"/>
<path d="M75.2888 90.6129H72.2201V93.1411H75.2888V90.6129Z" fill="#F2F2F2"/>
<path d="M80.0172 90.6129H76.9485V93.1411H80.0172V90.6129Z" fill="#F2F2F2"/>
<path d="M84.7457 90.6129H81.677V93.1411H84.7457V90.6129Z" fill="#F2F2F2"/>
<path d="M75.2888 94.4535H72.2201V96.9818H75.2888V94.4535Z" fill="#F2F2F2"/>
<path d="M80.0172 94.4535H76.9485V96.9818H80.0172V94.4535Z" fill="#F2F2F2"/>
<path d="M84.7457 94.4535H81.677V96.9818H84.7457V94.4535Z" fill="#F2F2F2"/>
<path d="M75.2888 98.2942H72.2201V100.822H75.2888V98.2942Z" fill="#F2F2F2"/>
<path d="M80.0172 98.2942H76.9485V100.822H80.0172V98.2942Z" fill="#F2F2F2"/>
<path d="M84.7457 98.2942H81.677V100.822H84.7457V98.2942Z" fill="#F6A61E"/>
<path d="M153.666 111.109C154.09 110.376 154.36 109.565 154.36 108.716C154.36 106.863 153.453 105.377 151.851 104.567C150.423 103.853 148.551 103.717 146.775 103.968C146.274 104.779 145.733 105.551 145.135 106.265C146.988 105.609 149.439 105.454 151.002 106.246C151.986 106.728 152.488 107.539 152.488 108.697C152.488 109.256 152.257 109.816 151.929 110.337C149.767 109.72 147.219 109.971 145.444 111.688C144.228 112.866 143.9 113.869 144.498 114.641C145.502 116.011 148.956 115.085 150.114 114.41C150.944 113.946 151.774 113.329 152.508 112.576C152.546 112.595 152.565 112.634 152.604 112.653C153.395 113.078 155.132 114.371 154.592 116.668C154.052 118.984 152.006 120.064 150.539 120.566C150.52 120.547 150.5 120.528 150.481 120.508C149.246 118.964 147.026 117.478 145.116 117.806C144.073 117.98 143.282 118.675 142.858 119.814C142.645 120.547 142.838 121.242 143.379 121.801C144.459 122.901 147.084 123.268 149.709 122.728C150.056 123.48 150.153 124.195 149.941 124.754C148.995 127.205 146.679 127.726 145.54 127.842C145.058 126.356 144.054 124.754 142.626 124.503C142.163 124.407 141.256 124.426 140.445 125.468C139.905 126.202 139.828 127.051 140.233 127.784C140.793 128.827 142.279 129.521 144.035 129.695C144.228 131.104 143.996 132.687 142.896 133.787C142.086 134.559 140.928 134.983 139.673 134.925C139.422 133.613 138.843 132.397 138.129 131.509C136.894 130.004 135.292 129.676 133.999 130.699C133.285 131.355 132.995 132.204 133.208 133.053C133.555 134.462 135.176 135.794 137.357 136.431C137.55 136.489 137.724 136.546 137.917 136.585C137.898 137.55 137.569 138.496 136.836 139.113C134.443 141.14 131.683 140.252 130.023 139.287V141.429C131.046 141.893 132.281 142.259 133.555 142.259C135.003 142.259 136.566 141.796 138.033 140.561C139.171 139.577 139.712 138.245 139.77 136.817C141.468 136.817 143.031 136.238 144.151 135.138C145.714 133.652 146.081 131.548 145.868 129.695C148.59 129.367 150.713 127.804 151.639 125.449C152.025 124.445 151.967 123.326 151.465 122.207C154.052 121.203 155.808 119.389 156.367 117.131C157.004 114.757 155.924 112.46 153.666 111.109ZM149.207 112.827C148.416 113.252 147.046 113.502 146.312 113.502C146.409 113.387 146.544 113.232 146.737 113.059C147.721 112.074 149.111 111.804 150.442 111.978C150.037 112.287 149.613 112.576 149.207 112.827ZM144.633 120.431C144.865 119.852 145.174 119.736 145.424 119.678C145.502 119.678 145.598 119.659 145.675 119.659C146.467 119.659 147.528 120.219 148.435 121.068C146.64 121.242 145.135 120.933 144.633 120.431ZM141.912 126.935C141.873 126.877 141.835 126.8 141.97 126.646C142.066 126.511 142.201 126.375 142.298 126.375H142.317C142.587 126.433 143.089 126.877 143.475 127.765C142.645 127.553 142.047 127.205 141.912 126.935ZM135.08 132.687C135.041 132.59 135.003 132.397 135.253 132.185C135.369 132.088 135.524 132.03 135.639 132.03C135.948 132.03 136.315 132.281 136.701 132.744C137.087 133.227 137.434 133.883 137.666 134.617C136.199 134.134 135.215 133.266 135.08 132.687Z" fill="#80BC22"/>
<path d="M68.9585 62.0105H61.6052V67.4724H68.9585V62.0105Z" fill="#712714"/>
<path d="M69.113 52.8817L68.727 54.1555L66.2952 62.0105H63.8827L66.5268 53.48L66.9321 52.2062L69.113 52.8817Z" fill="#999999"/>
<path d="M71.4868 51.9553C70.9657 53.615 69.2094 54.5414 67.5689 54.0203C65.9091 53.4992 64.9827 51.743 65.5038 50.1025C66.0249 48.4427 67.7812 47.5163 69.441 48.0374C71.0815 48.5392 72.0079 50.3148 71.4868 51.9553Z" fill="#F4E619"/>
<path opacity="0.77" d="M69.4603 50.2182C69.4603 51.0095 68.8234 51.6657 68.0128 51.6657C67.2022 51.6657 66.5653 51.0095 66.5653 50.2182C66.5653 49.4269 67.2215 48.7708 68.0128 48.7708C68.8234 48.7708 69.4603 49.4269 69.4603 50.2182Z" fill="white"/>
<path d="M59.3278 62.0105H51.9552V67.4724H59.3278V62.0105Z" fill="#712714"/>
<path d="M51.8201 52.8817L52.2061 54.1555L54.6378 62.0105H57.0503L54.4062 53.48L54.001 52.2062L51.8201 52.8817Z" fill="#999999"/>
<path d="M49.4462 51.9553C49.9673 53.615 51.7236 54.5414 53.3641 54.0203C55.0238 53.4992 55.9502 51.743 55.4291 50.1025C54.9273 48.4427 53.1518 47.5163 51.5113 48.0374C49.8515 48.5392 48.9251 50.3148 49.4462 51.9553Z" fill="#2B957C"/>
<path opacity="0.77" d="M50.2375 50.2182C50.2375 51.0095 50.8937 51.6657 51.685 51.6657C52.4763 51.6657 53.1325 51.0095 53.1325 50.2182C53.1325 49.4269 52.4956 48.7708 51.685 48.7708C50.8937 48.7708 50.2375 49.4269 50.2375 50.2182Z" fill="white"/>
<path d="M130.042 153.434L95.4957 187.981C94.9939 188 94.4921 188 93.9903 188C42.0737 188 0 145.926 0 94.0096C0 92.6586 0.0192999 91.3076 0.0964993 89.9759L56.51 33.5624V58.633H64.9247L64.7318 59.2892L57.9961 62.0104H57.0311L54.387 53.4799C55.3713 52.6886 55.8152 51.3762 55.4292 50.1024C54.9081 48.4426 53.1518 47.5162 51.492 48.0373C49.8516 48.5391 48.9252 50.3147 49.427 51.9552C49.8323 53.229 50.9516 54.0782 52.2061 54.1554L54.6379 62.0104H51.9552V64.4422L40.5104 69.0742V153.434H130.042Z" fill="#D1D1D1"/>
<path d="M154.592 116.687C154.052 119.003 152.006 120.084 150.539 120.586C150.52 120.566 150.5 120.547 150.481 120.528C149.246 119.003 147.046 117.498 145.116 117.826C144.073 117.999 143.282 118.694 142.858 119.833C142.645 120.566 142.838 121.261 143.379 121.821C144.459 122.94 147.084 123.288 149.709 122.747C150.076 123.5 150.172 124.214 149.941 124.774C148.995 127.225 146.679 127.746 145.54 127.862C145.038 126.375 144.054 124.774 142.626 124.523C142.163 124.426 141.256 124.446 140.445 125.507C139.905 126.24 139.828 127.07 140.252 127.823C140.812 128.865 142.298 129.579 144.054 129.734C144.247 131.143 144.016 132.744 142.916 133.825C142.105 134.597 140.947 135.022 139.692 134.964C139.422 133.652 138.863 132.436 138.148 131.567C136.913 130.062 135.311 129.714 134.018 130.757C133.304 131.413 133.034 132.262 133.227 133.111C133.574 134.52 135.196 135.852 137.376 136.489C137.569 136.547 137.762 136.604 137.936 136.643C137.917 137.608 137.608 138.554 136.855 139.171C134.443 141.198 131.702 140.31 130.042 139.345V116.127C131.76 115.838 133.401 115.317 135.003 114.603C135.582 114.352 136.141 114.062 136.701 113.734C137.454 113.329 138.168 112.885 138.882 112.364C139.924 111.63 140.947 110.781 141.912 109.855C143.031 108.755 144.112 107.577 145.116 106.265C146.968 105.609 149.439 105.454 150.983 106.246C151.986 106.728 152.469 107.539 152.469 108.697C152.469 109.257 152.257 109.836 151.909 110.357C149.748 109.739 147.2 109.971 145.424 111.708C144.209 112.885 143.88 113.869 144.479 114.66C145.502 116.031 148.956 115.124 150.114 114.448C150.925 113.966 151.774 113.348 152.508 112.595C152.546 112.615 152.565 112.653 152.604 112.673C153.395 113.116 155.132 114.41 154.592 116.687Z" fill="#D1D1D1"/>
<path d="M117.459 50.2954H105.802C104.026 50.3533 102.309 50.8165 100.707 51.6271C100.398 51.7622 100.089 51.9359 99.7802 52.1289C99.6258 52.1868 99.4907 52.2833 99.3363 52.3605C97.9274 53.2676 96.615 54.4063 95.4185 55.7959V45.7021L105.184 35.9556C104.644 36.6504 104.316 37.4996 104.316 38.4453V45.7407H108.407C108.658 45.7407 108.909 45.7214 109.16 45.7214C109.372 45.7214 109.565 45.7407 109.778 45.7407C112.383 45.9723 115.066 47.5741 117.459 50.2954Z" fill="#D1D1D1"/>
</g>
<defs>
<clipPath id="clip0">
<rect width="188" height="188" fill="white"/>
</clipPath>
</defs>
</svg>
