<svg width="187" height="187" viewBox="0 0 187 187" fill="none" xmlns="http://www.w3.org/2000/svg">
<g clip-path="url(#clip0)">
<path d="M187 93.5096C187 145.15 145.131 187.019 93.4904 187.019C41.8691 187 0 145.15 0 93.5096C0 41.8691 41.8691 0 93.5096 0C145.15 0 187 41.8691 187 93.5096Z" fill="#FFCC00"/>
<path d="M129.677 121.134C129.677 122.536 130.829 123.688 132.23 123.688H143.499C144.9 123.688 146.052 122.555 146.052 121.134V94.1239C146.052 92.7033 144.9 91.5707 143.499 91.5707H132.23C130.829 91.5707 129.677 92.7033 129.677 94.1239V121.134Z" fill="#333333"/>
<path d="M52.178 93.2025H44.0959V120.194H52.178V93.2025Z" fill="#A51E0D"/>
<path d="M55.0575 120.194H41.2355V124.456H55.0575V120.194Z" fill="#666666"/>
<path d="M44.1151 95.0838H37.5688V98.4433H44.1151V95.0838Z" fill="#666666"/>
<path d="M40.2757 98.4433H37.5688V105.757H40.2757V98.4433Z" fill="#666666"/>
<path d="M37.5688 103.473H30.869V105.757H37.5688V103.473Z" fill="#A51E0D"/>
<path d="M75.7137 80.1292C71.0104 86.8866 66.7294 85.2164 61.6806 84.6981C58.9354 84.4485 54.6736 84.007 54.2896 80.5899C54.1552 79.6684 54.328 78.3054 54.616 77.2688C55.1151 75.6946 55.4607 75.9442 57.1692 76.117C59.8184 76.3665 62.3141 76.8657 64.9249 77.576C68.3036 78.4974 72.3734 78.7662 75.7137 80.1292Z" fill="#EDE9E4"/>
<path d="M60.0679 99.8447C59.8951 101.784 58.1482 103.185 56.2093 103.012C54.2704 102.801 52.869 101.093 53.0417 99.1536C53.2529 97.2147 54.9615 95.7941 56.9004 95.9861C58.8393 96.178 60.2407 97.9058 60.0679 99.8447Z" fill="#9F383A"/>
<path d="M66.115 100.421C65.9806 101.803 64.7328 102.82 63.3698 102.667C61.9876 102.532 60.9702 101.323 61.1237 99.9407C61.2581 98.5393 62.4675 97.5411 63.8881 97.6754C65.2511 97.8098 66.2494 99.0576 66.115 100.421Z" fill="#9F383A"/>
<path d="M140.043 75.0227C140.427 75.1955 140.447 75.5794 140.907 75.7714C141.426 75.925 142.251 75.6946 142.789 75.6754C143.96 75.5986 145.188 75.5794 146.359 75.4259C148.241 75.1763 149.047 73.5061 149.124 71.7784C149.143 70.1466 147.569 69.4555 146.263 69.1484C144.977 68.7836 143.269 68.0157 141.982 68.6301C140.101 69.5515 140.485 72.9494 137.855 72.2007C136.07 68.0925 130.733 57.726 130.272 57.1501C129.715 56.459 128.429 55.1152 126.529 54.5777C124.609 54.0402 105.143 51.0838 101.476 50.7191C97.7712 50.3543 78.1325 49.4904 76.1359 49.644C74.1394 49.7976 72.6421 50.8918 71.951 51.4294C71.3942 51.9093 64.1377 61.0472 61.5845 64.7522C58.8585 64.9826 59.8951 61.7191 58.2249 60.452C57.0731 59.6074 55.2302 59.9913 53.9056 60.0873C52.6002 60.1641 50.8916 60.548 50.6229 62.1222C50.3349 63.8499 50.834 65.6353 52.6386 66.2304C53.7712 66.6143 54.9422 66.9023 56.0557 67.2095C56.5932 67.3438 57.3611 67.7278 57.9178 67.6702C58.3785 67.5934 58.5129 67.2095 58.8777 67.0943C59.2808 67.0175 59.7799 67.2671 60.2023 67.4014C60.1063 67.6126 59.5688 67.9198 59.3576 67.9965C59.3 68.0541 59.2808 68.0541 59.2808 68.0541C58.6857 68.3613 56.382 69.6283 55.0766 70.7801C53.1185 72.4695 49.7398 75.0227 49.5094 76.6161C49.279 78.2287 48.4536 79.3037 48.3 82.5288C48.2232 84.103 48.204 88.8831 48.1656 93.452C48.108 98.2321 48.1464 102.763 48.1464 103.089C48.1464 103.799 47.8393 104.548 48.0888 105.182C48.3384 105.853 49.0871 106.065 50.3157 106.18C50.6996 106.237 54.7886 106.698 60.375 107.293C73.6979 108.771 95.5251 111.229 95.5251 111.229C95.5251 111.229 118.101 113.11 131.405 114.243C136.684 114.684 140.485 115.011 140.85 115.03C142.078 115.164 142.865 115.087 143.23 114.492C143.595 113.897 143.441 113.11 143.595 112.419C143.691 111.958 145.284 103.915 146.398 98.0018C146.878 95.4102 147.3 93.1833 147.415 92.2042C147.895 88.9983 147.319 87.7697 147.396 86.1571C147.473 84.5445 144.056 80.7243 143.077 79.5149C142.405 78.747 140.139 76.3665 139.352 75.7714C138.892 75.3875 138.796 75.3875 138.68 75.0611C139.16 75.0035 139.66 74.8308 140.043 75.0227ZM56.2092 103.012C54.2703 102.801 52.8689 101.093 53.0417 99.1536C53.2529 97.2147 54.9614 95.7941 56.9003 95.9861C58.8393 96.1588 60.2407 97.9058 60.0679 99.8447C59.8951 101.784 58.1482 103.185 56.2092 103.012ZM63.3698 102.667C61.9876 102.532 60.9701 101.323 61.1237 99.9407C61.2581 98.5393 62.4675 97.541 63.8881 97.6754C65.2703 97.8098 66.2686 99.0576 66.1342 100.44C65.9806 101.803 64.7328 102.82 63.3698 102.667ZM66.7101 96.2548C66.9405 96.274 67.19 96.3316 67.4204 96.3508C67.7852 96.4084 68.1115 96.4852 68.4763 96.5236C68.6298 96.5812 68.8026 96.6004 68.9946 96.6196C68.2267 96.5044 67.478 96.37 66.7101 96.2548ZM61.6804 84.6981C58.9352 84.4485 54.6735 84.007 54.2895 80.5899C54.1551 79.6684 54.3279 78.3054 54.6159 77.2688C55.115 75.6946 55.4606 75.9442 57.1691 76.117C59.8183 76.3665 62.314 76.8657 64.9248 77.576C68.3227 78.4974 72.3733 78.7662 75.7136 80.1292C71.0103 86.8866 66.7293 85.1972 61.6804 84.6981ZM62.0068 66.8831C61.2389 66.8063 72.93 51.9861 72.93 51.9861L101.208 53.5027L129.216 57.5149C129.216 57.5149 137.817 74.2932 137.049 74.2164C136.3 74.1588 111.075 70.2234 99.6333 69.3403C88.2686 67.9773 62.7555 66.9407 62.0068 66.8831ZM125.934 106.276C126.068 104.894 127.297 103.876 128.679 104.03C130.061 104.164 131.059 105.374 130.925 106.756C130.79 108.157 129.562 109.155 128.16 109.021C126.817 108.906 125.818 107.658 125.934 106.276ZM132.326 106.89C132.537 104.97 134.246 103.55 136.185 103.761C138.124 103.934 139.544 105.681 139.352 107.62C139.18 109.539 137.433 110.96 135.494 110.787C133.574 110.557 132.134 108.848 132.326 106.89ZM129.331 102.244C129.658 102.264 129.984 102.302 130.33 102.302C130.406 102.302 130.464 102.302 130.502 102.321C130.119 102.302 129.715 102.264 129.331 102.244ZM140.005 84.199C141.733 84.3718 142.098 84.199 142.309 85.8307C142.405 86.8866 142.29 88.2496 141.982 89.1711C140.965 92.4346 136.703 92.0314 133.939 91.7435C128.871 91.2636 124.34 92.0698 121.057 84.5445C124.609 83.8534 128.602 84.3718 132.134 84.1414C134.803 83.9494 137.375 83.9494 140.005 84.199Z" fill="#52A9C4"/>
<path d="M137.03 74.1972C136.3 74.1588 111.075 70.2234 99.6335 69.3403C88.2495 67.9965 62.7364 66.9407 62.0069 66.9023C61.2391 66.8255 72.9302 52.0052 72.9302 52.0052L101.208 53.5218L129.216 57.534C129.216 57.4957 137.817 74.274 137.03 74.1972Z" fill="#176174"/>
<path d="M141.963 89.1711C140.946 92.4346 136.684 92.0314 133.92 91.7435C128.852 91.2636 124.321 92.0698 121.038 84.5445C124.59 83.8534 128.583 84.3718 132.115 84.1414C134.784 83.9302 137.375 83.9302 140.005 84.199C141.733 84.3718 142.098 84.199 142.309 85.8307C142.405 86.8866 142.27 88.2688 141.963 89.1711Z" fill="#EDE9E4"/>
<path d="M130.944 106.756C130.81 108.157 129.581 109.155 128.18 109.021C126.798 108.906 125.818 107.639 125.934 106.257C126.068 104.874 127.297 103.857 128.679 104.01C130.08 104.145 131.079 105.373 130.944 106.756Z" fill="#9F383A"/>
<path d="M139.333 107.6C139.16 109.52 137.414 110.941 135.475 110.768C133.555 110.557 132.134 108.848 132.307 106.89C132.518 104.97 134.227 103.55 136.166 103.761C138.105 103.934 139.544 105.661 139.333 107.6Z" fill="#9F383A"/>
<path opacity="0.86" d="M74.8882 98.213C73.8707 100.747 72.8149 104.318 69.9737 104.97C68.2267 105.431 64.3489 104.913 62.506 104.721C59.4344 104.414 56.5164 104.011 53.4449 103.703C50.6805 103.435 50.3157 102.475 51.1988 99.7679C52.0051 97.829 51.8131 95.8901 53.9632 95.3334C55.9597 94.8151 69.5705 96.4852 74.8882 98.213Z" fill="#B3B3B3"/>
<path opacity="0.86" d="M137.97 111.977C134.899 111.67 131.962 111.517 128.871 111.209C127.028 111.037 123.131 110.787 121.499 110.019C118.831 108.829 118.485 105.124 117.986 102.436C123.534 101.784 137.202 102.763 139.084 103.665C141.061 104.625 140.504 106.487 140.927 108.541C141.272 111.363 140.735 112.246 137.97 111.977Z" fill="#B3B3B3"/>
<path d="M60.0679 99.8447C59.8951 101.784 58.1482 103.185 56.2093 103.012C54.2704 102.801 52.869 101.093 53.0417 99.1536C53.2529 97.2147 54.9615 95.7941 56.9004 95.9861C58.8393 96.178 60.2407 97.9058 60.0679 99.8447Z" fill="#F4B410"/>
<path d="M66.115 100.421C65.9806 101.803 64.7328 102.82 63.3698 102.667C61.9876 102.532 60.9702 101.323 61.1237 99.9407C61.2581 98.5393 62.4675 97.5411 63.8881 97.6754C65.2511 97.8098 66.2494 99.0576 66.115 100.421Z" fill="#F4B410"/>
<path d="M139.333 107.6C139.16 109.52 137.414 110.941 135.475 110.768C133.555 110.557 132.134 108.848 132.307 106.89C132.518 104.97 134.227 103.55 136.166 103.761C138.105 103.934 139.544 105.661 139.333 107.6Z" fill="#F4B410"/>
<path d="M130.944 106.756C130.81 108.157 129.581 109.155 128.18 109.021C126.798 108.906 125.818 107.639 125.934 106.257C126.068 104.874 127.297 103.857 128.679 104.01C130.08 104.145 131.079 105.373 130.944 106.756Z" fill="#F4B410"/>
<path opacity="0.86" d="M118.562 96.6772C117.794 98.8273 115.836 103.147 114.569 105.796C113.302 108.445 109.501 107.716 109.136 107.677L82.5863 105.086C82.2023 105.047 78.3437 105.047 77.6142 102.187C76.8847 99.3264 75.7905 94.7191 75.4641 92.4538C75.1186 90.0542 73.6404 85.8692 84.8899 87.2322C90.6875 87.9425 94.8917 88.3456 97.5985 88.576C100.305 88.8831 104.509 89.2863 110.345 89.7278C121.633 90.5725 119.349 94.3927 118.562 96.6772Z" fill="#969696"/>
<path d="M145.016 123.15L81.8762 186.29C41.3893 181.26 8.92678 150.372 1.55505 110.672L51.0071 61.2199C50.8151 61.4695 50.6807 61.7574 50.6231 62.103C50.3352 63.8499 50.8151 65.6353 52.6388 66.2112C53.7523 66.5951 54.9233 66.8831 56.0559 67.1902C56.5934 67.3054 57.3613 67.6894 57.918 67.651C58.3788 67.5742 58.494 67.1902 58.8779 67.0559C59.3002 66.9791 59.7802 67.2478 60.2217 67.363C60.1065 67.5742 59.569 67.8813 59.377 67.9581C59.3194 67.9965 59.3002 67.9965 59.3002 67.9965C58.7051 68.3037 56.3823 69.5899 55.0769 70.7417C53.1187 72.4119 49.7592 74.9651 49.5289 76.5777C49.2985 78.1902 48.473 79.2461 48.3194 82.4904C48.2427 84.0454 48.2235 88.6911 48.2043 93.2025H44.0961V95.0838H37.5498V103.473H30.85V105.757H40.2566V98.4433H44.0961V120.194H41.2165V124.456H55.0385V120.194H52.1589V106.353C53.9442 106.564 56.8622 106.871 60.3945 107.255C73.6982 108.733 95.5446 111.19 95.5446 111.19C95.5446 111.19 116.22 112.918 129.658 114.051V121.134C129.658 122.536 130.81 123.688 132.211 123.688H143.48C144.056 123.688 144.593 123.496 145.016 123.15Z" fill="#D1D1D1"/>
</g>
<defs>
<clipPath id="clip0">
<rect width="187" height="187" fill="white"/>
</clipPath>
</defs>
</svg>
