<svg width="203" height="203" viewBox="0 0 203 203" fill="none" xmlns="http://www.w3.org/2000/svg">
<g clip-path="url(#clip0)">
<path d="M203 101.51C203 157.569 157.548 203.021 101.49 203.021C45.4515 203 0 157.569 0 101.51C0 45.4515 45.4515 0 101.51 0C157.569 0 203 45.4515 203 101.51Z" fill="#FFCC00"/>
<path d="M131.478 95.2793C131.311 94.029 130.978 92.6952 130.624 91.4865C130.373 90.4862 130.082 89.465 129.665 88.5273C129.248 87.2977 128.706 86.1098 128.123 84.9428C122.892 74.4813 112.785 66.8122 100.802 64.9783C99.5307 64.7908 98.1969 64.6658 96.9465 64.6449C96.4255 64.5616 95.9254 64.5407 95.4044 64.5407C94.8417 64.5616 94.2791 64.5407 93.7581 64.6449C92.4868 64.6658 91.1948 64.7699 89.9444 64.9367C77.9198 66.6872 67.7501 74.2312 62.4984 84.7136C61.8107 85.8806 61.3106 87.0268 60.8729 88.2772C60.5395 89.2358 60.1644 90.2153 59.8935 91.2364C59.5183 92.466 59.2474 93.7164 59.0182 95.0084C58.6431 97.0507 58.4764 99.0722 58.4555 101.198C58.393 111.43 62.6026 120.662 69.3339 127.352L69.4589 127.477L72.1056 129.915L72.2306 129.978C73.0017 130.644 73.8353 131.228 74.6897 131.791L78.0657 133.833C83.1506 136.521 88.9024 138.105 95.1126 138.105C101.198 138.126 107.012 136.667 112.097 133.979C113.264 133.437 114.389 132.749 115.473 132.041C116.348 131.457 117.182 130.832 118.016 130.228L120.871 127.623C127.664 121.016 131.957 111.722 131.978 101.49C131.978 99.3848 131.811 97.3008 131.478 95.2793ZM95.2168 130.644C79.0244 130.644 65.937 117.515 65.937 101.344C65.937 85.1721 79.0452 72.0639 95.2168 72.0639C111.388 72.0639 124.497 85.1721 124.497 101.344C124.497 117.515 111.388 130.644 95.2168 130.644Z" fill="#ABABAB"/>
<path d="M95.196 95.2793C91.8825 95.2793 89.1733 97.9885 89.1733 101.323C89.1733 104.636 91.8825 107.346 95.196 107.346C98.5304 107.346 101.24 104.636 101.24 101.323C101.24 97.9885 98.5304 95.2793 95.196 95.2793ZM95.196 105.387C92.9245 105.387 91.1114 103.532 91.1114 101.26C91.1114 98.9888 92.9245 97.1966 95.2377 97.1966C97.5092 97.2174 99.3223 99.0305 99.3223 101.302C99.3015 103.553 97.4884 105.407 95.196 105.387Z" fill="#67576A"/>
<path d="M149.317 88.1104C149.233 87.8604 149.171 87.5895 149.088 87.3394C148.733 86.1098 148.316 84.8803 147.858 83.7341C147.858 83.7133 147.837 83.6924 147.837 83.6507C139.876 63.1653 119.308 48.5566 95.2376 48.5566C64.2073 48.5566 39.0745 72.7724 39.0745 102.594C39.0745 116.515 44.5762 128.644 53.5373 137.605C55.8714 141.002 56.9133 144.107 55.0378 145.837C52.7662 147.983 53.0997 151.943 59.3099 153.193C70.355 155.152 77.7739 153.11 88.8815 153.568C90.9447 153.797 93.0703 153.881 95.2168 153.881C97.3008 153.881 99.3848 153.797 101.427 153.61C112.806 153.068 120.287 155.194 131.478 153.193C137.688 151.943 138.022 147.983 135.75 145.837C133.583 143.794 135.333 139.939 138.522 135.833C138.584 135.792 138.605 135.729 138.647 135.688C146.608 126.977 151.359 115.577 151.359 102.594C151.401 97.5925 150.671 92.6952 149.317 88.1104ZM126.956 133.833L123.371 137C122.371 137.792 121.329 138.563 120.225 139.272C118.932 140.168 117.494 141.002 116.057 141.71C109.742 144.982 102.615 146.816 95.0501 146.795C87.3811 146.774 80.2539 144.857 74.0228 141.502L69.7923 138.98C68.7712 138.313 67.7083 137.542 66.7497 136.75L66.6247 136.667L63.332 133.645L63.1653 133.499C54.8919 125.247 49.6611 113.785 49.7236 101.135C49.7445 98.5303 49.9737 96.0087 50.4739 93.4871C50.7031 91.8824 51.0365 90.3195 51.495 88.819C51.8493 87.5895 52.3078 86.3391 52.7037 85.1929C53.2872 83.6299 53.9333 82.2128 54.746 80.7749C61.248 67.8334 73.8352 58.4763 88.694 56.3298C90.1944 56.1006 91.8408 55.9547 93.4246 55.9547C94.0706 55.8505 94.7375 55.8714 95.446 55.8505C96.0921 55.8505 96.6756 55.8714 97.3425 55.9547C98.9263 55.9756 100.531 56.1631 102.115 56.3715C116.932 58.643 129.415 68.1251 135.938 81.0666C136.625 82.5046 137.292 83.9842 137.834 85.4846C138.355 86.6517 138.668 87.8812 139.001 89.1316C139.46 90.6737 139.876 92.2784 140.043 93.8414C140.481 96.3421 140.689 98.9054 140.71 101.51C140.668 114.181 135.375 125.643 126.956 133.833Z" fill="#333245"/>
<path d="M140.043 93.8205C139.856 92.2576 139.46 90.6529 139.001 89.1108C138.668 87.8604 138.334 86.6308 137.834 85.4638C137.292 83.9633 136.625 82.4629 135.938 81.0458C129.415 68.1043 116.932 58.6222 102.115 56.3507C100.531 56.1423 98.9263 55.9756 97.3425 55.9339C96.6756 55.8505 96.0921 55.8297 95.446 55.8297C94.7375 55.8505 94.0706 55.8297 93.4246 55.9339C91.8408 55.9339 90.2153 56.0798 88.694 56.309C73.8352 58.4555 61.248 67.8125 54.746 80.754C53.9333 82.192 53.2872 83.6091 52.7037 85.172C52.3286 86.3182 51.8493 87.5686 51.495 88.7982C51.0365 90.2986 50.7031 91.8616 50.4739 93.4663C49.9946 95.967 49.7653 98.5095 49.7236 101.114C49.6611 113.764 54.8919 125.226 63.1653 133.479L63.332 133.624L66.6247 136.646L66.7497 136.73C67.6875 137.521 68.7712 138.293 69.7923 138.959L74.0228 141.481C80.2539 144.836 87.4019 146.754 95.0501 146.774C102.615 146.795 109.742 144.961 116.057 141.689C117.494 141.002 118.932 140.147 120.225 139.251C121.329 138.543 122.371 137.772 123.371 136.98L126.956 133.812C135.375 125.643 140.668 114.16 140.71 101.469C140.689 98.8846 140.481 96.3422 140.043 93.8205ZM128.665 88.4022C128.769 88.6314 128.852 88.8607 128.915 89.0691L129.019 89.34C129.331 90.2569 129.644 91.1531 129.852 92.07L109.888 98.4261C109.659 97.1757 109.221 95.9462 108.7 94.8209L128.665 88.4022ZM113.181 70.2925C113.264 70.3341 113.327 70.3758 113.41 70.4175C115.265 71.522 117.036 72.7516 118.682 74.2103C119.933 75.3148 121.141 76.5027 122.225 77.7948C122.371 77.9823 122.559 78.1282 122.684 78.3158C122.725 78.3991 122.809 78.4408 122.85 78.5242C123.496 79.2952 124.101 80.0663 124.663 80.8999C125.268 81.796 125.872 82.6921 126.393 83.6507L103.969 89.1941L102.427 66.187C106.262 66.9998 109.867 68.3752 113.181 70.2925ZM107.45 97.926C107.45 99.1347 106.491 100.093 105.282 100.093C104.053 100.093 103.094 99.1138 103.094 97.926C103.094 96.7173 104.053 95.7586 105.282 95.7586C106.491 95.7378 107.45 96.7173 107.45 97.926ZM103.636 109.7C103.636 110.909 102.657 111.868 101.469 111.868C100.26 111.868 99.3014 110.888 99.3014 109.7C99.3014 108.471 100.281 107.512 101.469 107.512C102.677 107.512 103.636 108.471 103.636 109.7ZM93.3412 65.541C94.6541 65.4576 95.967 65.4576 97.2799 65.541L97.1966 86.4849C96.5505 86.3808 95.8837 86.3391 95.196 86.3391C94.5291 86.3391 93.9039 86.3808 93.237 86.4849L93.3412 65.541ZM95.2168 88.3605C96.4255 88.3605 97.3841 89.34 97.3841 90.5487C97.3841 91.7574 96.4255 92.716 95.2168 92.716C94.0498 92.716 93.0495 91.7366 93.0495 90.5487C93.0286 89.3192 94.0289 88.3605 95.2168 88.3605ZM95.2168 95.2793C98.572 95.2793 101.281 97.9885 101.281 101.344C101.281 104.657 98.572 107.366 95.2168 107.366C91.9241 107.366 89.215 104.657 89.215 101.344C89.215 97.9885 91.9033 95.2793 95.2168 95.2793ZM89.0274 107.512C90.2361 107.512 91.1947 108.492 91.1947 109.7C91.1947 110.909 90.2153 111.868 89.0274 111.868C87.7979 111.868 86.8601 110.888 86.8601 109.7C86.8601 108.471 87.7979 107.512 89.0274 107.512ZM85.2346 100.093C84.0259 100.093 83.0672 99.1138 83.0672 97.926C83.0672 96.7173 84.0467 95.7586 85.2346 95.7586C86.4433 95.7586 87.4019 96.7381 87.4019 97.926C87.4227 99.1138 86.4433 100.093 85.2346 100.093ZM67.75 78.2324C67.7917 78.1907 67.8751 78.0865 67.9584 78.0032C70.4592 75.0856 73.3976 72.564 76.857 70.5425C77.0029 70.4383 77.1904 70.355 77.3363 70.2508C77.3571 70.1674 77.4613 70.1466 77.5447 70.1049C78.7117 69.438 80.0038 68.8545 81.2959 68.3335C81.8794 68.0626 82.4629 67.7917 83.1297 67.5416C83.7341 67.3124 84.401 67.104 85.0678 66.9581C86.1098 66.6247 87.1727 66.3746 88.2147 66.1454L86.5475 89.0899V89.1108H86.5266L64.1447 83.4007C65.1867 81.6084 66.3954 79.8371 67.75 78.2324ZM61.5398 89.0066C61.5606 88.9232 61.6231 88.8815 61.644 88.7773C61.7273 88.5689 61.8107 88.3605 61.8941 88.1938L81.796 94.7583C81.2125 95.8837 80.7749 97.1341 80.4831 98.3844L60.6228 91.8199C60.9146 90.8613 61.2272 89.9443 61.5398 89.0066ZM68.5836 125.309C68.3335 124.976 68.0418 124.663 67.7709 124.33C67.7083 124.247 67.6458 124.205 67.5625 124.122C65.0408 121.079 62.936 117.494 61.5189 113.535L61.4147 113.264C60.9146 111.889 60.5186 110.471 60.206 109.096C59.8309 107.491 59.6017 105.845 59.4558 104.22C59.3516 103.219 59.3516 102.219 59.3516 101.26V100.969C59.3516 100.739 59.3516 100.468 59.3933 100.198C59.3933 99.093 59.4766 98.0093 59.6017 96.9465L80.8582 105.658L68.5836 125.309ZM72.439 128.998L84.7969 112.076C85.7139 112.972 86.7975 113.764 87.9229 114.369L75.5232 131.27C74.4396 130.582 73.4184 129.811 72.439 128.998ZM107.304 135.062C105.366 135.771 103.365 136.292 101.406 136.667C101.323 136.646 101.219 136.688 101.156 136.667C98.0719 137.23 94.9459 137.334 91.945 137.021C90.9238 136.917 89.9443 136.813 88.9649 136.646C88.8607 136.625 88.7773 136.625 88.7148 136.605C88.173 136.48 87.6311 136.396 87.0685 136.229C85.7347 135.938 84.4635 135.583 83.1923 135.104C82.1503 134.75 81.15 134.333 80.1705 133.854L95.0084 116.327L109.971 134.041C109.117 134.396 108.221 134.75 107.304 135.062ZM114.619 131.457L102.365 114.514C103.511 113.868 104.595 113.076 105.532 112.18L117.745 129.186C116.786 130.019 115.744 130.769 114.619 131.457ZM131.082 101.656C131.061 105.803 130.311 109.867 128.915 113.639C128.873 113.722 128.873 113.827 128.81 113.889C128.644 114.348 128.456 114.806 128.227 115.265C127.581 116.807 126.852 118.286 125.997 119.745C125.309 120.871 124.601 121.975 123.767 122.996C123.413 123.496 123.059 123.976 122.663 124.434C122.621 124.476 122.517 124.538 122.475 124.643C122.204 124.976 121.913 125.309 121.6 125.622L109.513 105.762L130.832 97.2174C130.978 98.6345 131.082 100.031 131.082 101.406C131.103 101.49 131.082 101.573 131.082 101.656Z" fill="white"/>
<path d="M103.636 109.7C103.636 110.909 102.657 111.868 101.469 111.868C100.26 111.868 99.3014 110.888 99.3014 109.7C99.3014 108.471 100.281 107.512 101.469 107.512C102.677 107.512 103.636 108.471 103.636 109.7Z" fill="#67576A"/>
<path d="M91.1948 109.7C91.1948 110.909 90.2153 111.868 89.0274 111.868C87.7979 111.868 86.8601 110.888 86.8601 109.7C86.8601 108.471 87.7979 107.512 89.0274 107.512C90.2362 107.512 91.1948 108.471 91.1948 109.7Z" fill="#67576A"/>
<path d="M87.4227 97.926C87.4227 99.1347 86.4433 100.093 85.2554 100.093C84.0467 100.093 83.0881 99.1138 83.0881 97.926C83.0881 96.7173 84.0675 95.7586 85.2554 95.7586C86.4433 95.7378 87.4227 96.7173 87.4227 97.926Z" fill="#67576A"/>
<path d="M97.3842 90.5487C97.3842 91.7574 96.4255 92.716 95.2168 92.716C94.0498 92.716 93.0495 91.7366 93.0495 90.5487C93.0495 89.3192 94.0498 88.3605 95.2168 88.3605C96.4047 88.3605 97.3842 89.3192 97.3842 90.5487Z" fill="#67576A"/>
<path d="M107.45 97.926C107.45 99.1347 106.491 100.093 105.282 100.093C104.053 100.093 103.094 99.1138 103.094 97.926C103.094 96.7173 104.053 95.7586 105.282 95.7586C106.491 95.7378 107.45 96.7173 107.45 97.926Z" fill="#67576A"/>
<path d="M187.453 74.252C187.453 78.42 184.453 81.9002 180.535 82.6713V82.8171C180.535 83.5882 180.43 84.3176 180.264 85.047C179.263 88.7982 175.867 91.5698 171.824 91.5698C167.218 91.5698 163.696 89.4233 163.363 84.9428C163.133 84.9636 162.446 84.8594 162.217 84.9011C157.486 85.7972 153.151 85.6097 149.108 87.3602C148.754 86.1307 148.337 84.9011 147.879 83.7549C153.568 82.2753 159.132 79.4203 162.571 74.5854C161.571 73.4601 160.966 71.9805 160.966 70.3341C160.966 66.8122 163.842 63.9363 167.364 63.9363C169.99 63.9363 172.261 65.541 173.241 67.8125C174.741 66.4788 176.742 65.666 178.909 65.666C183.64 65.666 187.453 69.5214 187.453 74.252Z" fill="white"/>
<path d="M135.771 151.297L85.3388 201.729C42.5132 194.873 8.62773 161.237 1.41718 118.537L53.329 66.6247C44.4513 76.1693 39.0746 88.7773 39.0746 102.594C39.0746 116.515 44.5555 128.644 53.5374 137.605C55.8506 141.023 56.9134 144.107 55.0378 145.837C52.7663 147.983 53.0998 151.943 59.31 153.214C70.3551 155.173 77.774 153.13 88.8816 153.589C90.9656 153.818 93.0704 153.902 95.2169 153.902C97.3217 153.902 99.3848 153.818 101.448 153.61C112.806 153.068 120.308 155.194 131.499 153.214C133.499 152.818 134.896 152.109 135.771 151.297Z" fill="#D1D1D1"/>
<path d="M81.796 94.7375C81.2124 95.8628 80.7748 97.1341 80.5039 98.3845L66.8747 93.8622C67.2081 92.6118 67.6249 91.4031 68.1042 90.2153L81.796 94.7375Z" fill="#D1D1D1"/>
<path d="M80.8791 105.699L72.2098 119.495C68.271 114.494 65.9161 108.2 65.9161 101.344C65.9161 100.739 65.937 100.156 65.9787 99.5723L80.8791 105.699Z" fill="#D1D1D1"/>
<path d="M87.8812 114.389L79.3786 125.976C78.2949 125.289 77.2738 124.538 76.2943 123.705L84.7761 112.076C85.693 112.972 86.7559 113.764 87.8812 114.389Z" fill="#D1D1D1"/>
<path d="M105.532 128.748C102.323 129.957 98.8429 130.624 95.1959 130.624C91.4448 130.624 87.8395 129.915 84.5468 128.623L94.9875 116.286L105.532 128.748Z" fill="#D1D1D1"/>
<path d="M113.931 123.871C112.931 124.684 111.889 125.455 110.763 126.143L102.365 114.514C103.511 113.868 104.574 113.076 105.533 112.18L113.931 123.871Z" fill="#D1D1D1"/>
<path d="M99.3014 101.281C99.2805 103.553 97.4883 105.407 95.1959 105.387C92.9244 105.387 91.1113 103.532 91.1113 101.26C91.1113 98.968 92.9244 97.1966 95.2376 97.1966C97.5091 97.2174 99.3014 99.0305 99.3014 101.281Z" fill="#D1D1D1"/>
<path d="M97.2382 72.1472L97.1965 86.485C96.5505 86.3808 95.8628 86.3391 95.1959 86.3391C94.5291 86.3391 93.9039 86.3808 93.237 86.485L93.2995 72.1264C93.9247 72.0847 94.5499 72.0639 95.1959 72.0639C95.8836 72.0639 96.5714 72.0847 97.2382 72.1472Z" fill="#D1D1D1"/>
<path d="M87.7145 73.0225L86.5683 89.0899V89.1316H86.5266L70.8134 85.1304C74.7105 79.2536 80.6915 74.8772 87.7145 73.0225Z" fill="#D1D1D1"/>
<path d="M119.683 85.2971L103.99 89.1733L102.928 73.085C109.909 75.0023 115.827 79.3995 119.683 85.2971Z" fill="#D1D1D1"/>
<path d="M123.58 94.0915L109.888 98.447C109.68 97.1966 109.242 95.9671 108.7 94.8417L122.371 90.4237C122.85 91.6115 123.246 92.8411 123.58 94.0915Z" fill="#D1D1D1"/>
<path d="M124.476 101.344C124.476 108.304 122.058 114.681 118.016 119.703L109.513 105.741L124.434 99.7599C124.455 100.281 124.476 100.802 124.476 101.344Z" fill="#D1D1D1"/>
</g>
<defs>
<clipPath id="clip0">
<rect width="203" height="203" fill="white"/>
</clipPath>
</defs>
</svg>
